<?xml version="1.0" encoding="UTF-8"?>
<!-- PC Fútbol - Icon Sprite (monochrome, stroke=currentColor) -->
<svg xmlns="http://www.w3.org/2000/svg" viewBox="0 0 24 24" style="display:none">
  <defs>
    <style>
      .s{fill:none;stroke:currentColor;stroke-width:2;stroke-linecap:round;stroke-linejoin:round}
    </style>
  </defs>

  <!-- Stats -->
  <symbol id="ico-stats" viewBox="0 0 24 24">
    <path class="s" d="M4 20V6"/>
    <path class="s" d="M4 20H20"/>
    <path class="s" d="M8 20V12"/>
    <path class="s" d="M12 20V9"/>
    <path class="s" d="M16 20V14"/>
  </symbol>

  <!-- Trophy / Standings -->
  <symbol id="ico-standings" viewBox="0 0 24 24">
    <path class="s" d="M8 4h8v3a4 4 0 0 1-8 0V4z"/>
    <path class="s" d="M6 4v3a6 6 0 0 0 6 6"/>
    <path class="s" d="M18 4v3a6 6 0 0 1-6 6"/>
    <path class="s" d="M9 19h6"/>
    <path class="s" d="M10 13v3l-2 3h8l-2-3v-3"/>
  </symbol>

  <!-- Calendar -->
  <symbol id="ico-calendar" viewBox="0 0 24 24">
    <path class="s" d="M7 3v3"/>
    <path class="s" d="M17 3v3"/>
    <path class="s" d="M4 7h16"/>
    <path class="s" d="M5 6h14a2 2 0 0 1 2 2v12a2 2 0 0 1-2 2H5a2 2 0 0 1-2-2V8a2 2 0 0 1 2-2z"/>
    <path class="s" d="M8 11h3"/>
    <path class="s" d="M13 11h3"/>
    <path class="s" d="M8 15h3"/>
    <path class="s" d="M13 15h3"/>
  </symbol>

  <!-- Results -->
  <symbol id="ico-results" viewBox="0 0 24 24">
    <path class="s" d="M7 6h14"/>
    <path class="s" d="M7 12h14"/>
    <path class="s" d="M7 18h14"/>
    <path class="s" d="M3 6l1 1 2-2"/>
    <path class="s" d="M3 12l1 1 2-2"/>
    <path class="s" d="M3 18l1 1 2-2"/>
  </symbol>

  <!-- Alignment -->
  <symbol id="ico-alignment" viewBox="0 0 24 24">
    <path class="s" d="M4 5h16v14H4z"/>
    <path class="s" d="M12 5v14"/>
    <path class="s" d="M7 8a1 1 0 1 0 0.01 0"/>
    <path class="s" d="M7 12a1 1 0 1 0 0.01 0"/>
    <path class="s" d="M7 16a1 1 0 1 0 0.01 0"/>
    <path class="s" d="M17 10a1 1 0 1 0 0.01 0"/>
    <path class="s" d="M17 14a1 1 0 1 0 0.01 0"/>
  </symbol>

  <!-- Tactics -->
  <symbol id="ico-tactics" viewBox="0 0 24 24">
    <path class="s" d="M4 5h16v14H4z"/>
    <path class="s" d="M7 15c2-3 4-3 6-1s4 2 4 2"/>
    <path class="s" d="M15 16h2v-2"/>
    <path class="s" d="M8 9a1 1 0 1 0 .01 0"/>
    <path class="s" d="M12 10a1 1 0 1 0 .01 0"/>
    <path class="s" d="M16 11a1 1 0 1 0 .01 0"/>
  </symbol>

  <!-- Markings -->
  <symbol id="ico-markings" viewBox="0 0 24 24">
    <path class="s" d="M12 21a9 9 0 1 1 0-18 9 9 0 0 1 0 18z"/>
    <path class="s" d="M12 16a4 4 0 1 1 0-8 4 4 0 0 1 0 8z"/>
  </symbol>

  <!-- Training -->
  <symbol id="ico-training" viewBox="0 0 24 24">
    <path class="s" d="M12 21a9 9 0 1 1 0-18 9 9 0 0 1 0 18z"/>
    <path class="s" d="M9 8l3-2 3 2-1 3H10z"/>
    <path class="s" d="M10 11l-3 2 1 4"/>
    <path class="s" d="M14 11l3 2-1 4"/>
  </symbol>

  <!-- Squad -->
  <symbol id="ico-squad" viewBox="0 0 24 24">
    <path class="s" d="M8 5l4 2 4-2 3 3-2 2v10H7V10L5 8l3-3z"/>
    <path class="s" d="M10 7h4"/>
  </symbol>

  <!-- School -->
  <symbol id="ico-school" viewBox="0 0 24 24">
    <path class="s" d="M4 10l8-5 8 5"/>
    <path class="s" d="M6 10v10h12V10"/>
    <path class="s" d="M10 20v-6h4v6"/>
  </symbol>

  <!-- Scout -->
  <symbol id="ico-scout" viewBox="0 0 24 24">
    <path class="s" d="M7 7h3l1 3H8z"/>
    <path class="s" d="M14 7h3l-1 3h-3z"/>
    <path class="s" d="M8 10a4 4 0 1 0 0 8 4 4 0 0 0 0-8z"/>
    <path class="s" d="M16 10a4 4 0 1 0 0 8 4 4 0 0 0 0-8z"/>
  </symbol>

  <!-- Transfers -->
  <symbol id="ico-transfers" viewBox="0 0 24 24">
    <path class="s" d="M7 7h11"/>
    <path class="s" d="M16 5l2 2-2 2"/>
    <path class="s" d="M17 17H6"/>
    <path class="s" d="M8 19l-2-2 2-2"/>
  </symbol>

  <!-- President -->
  <symbol id="ico-president" viewBox="0 0 24 24">
    <path class="s" d="M10 3h4l1 3-3 3-3-3 1-3z"/>
    <path class="s" d="M12 9l2 4-2 8-2-8 2-4z"/>
  </symbol>

  <!-- Staff -->
  <symbol id="ico-staff" viewBox="0 0 24 24">
    <path class="s" d="M14 6a4 4 0 0 0-4 4v2h3a3 3 0 1 0 1-6z"/>
    <path class="s" d="M10 12H6a3 3 0 0 0 0 6h6"/>
    <path class="s" d="M18 8l2-2"/>
  </symbol>

  <!-- Stadium -->
  <symbol id="ico-stadium" viewBox="0 0 24 24">
    <path class="s" d="M4 10c0-3 16-3 16 0v8c0 3-16 3-16 0v-8z"/>
    <path class="s" d="M6 10v8"/>
    <path class="s" d="M18 10v8"/>
    <path class="s" d="M9 14h6"/>
  </symbol>

  <!-- Finance -->
  <symbol id="ico-finance" viewBox="0 0 24 24">
    <path class="s" d="M6 7c0-1.7 2.7-3 6-3s6 1.3 6 3-2.7 3-6 3-6-1.3-6-3z"/>
    <path class="s" d="M6 7v4c0 1.7 2.7 3 6 3s6-1.3 6-3V7"/>
    <path class="s" d="M6 11v4c0 1.7 2.7 3 6 3s6-1.3 6-3v-4"/>
  </symbol>

  <!-- Pin -->
  <symbol id="ico-pin" viewBox="0 0 24 24">
    <path class="s" d="M12 21s7-5.2 7-11a7 7 0 1 0-14 0c0 5.8 7 11 7 11z"/>
    <path class="s" d="M12 11a2 2 0 1 0 0-4 2 2 0 0 0 0 4z"/>
  </symbol>

  <!-- Clock -->
  <symbol id="ico-clock" viewBox="0 0 24 24">
    <path class="s" d="M12 21a9 9 0 1 1 0-18 9 9 0 0 1 0 18z"/>
    <path class="s" d="M12 7v6l4 2"/>
  </symbol>
  <!-- punto -->
  <symbol id="ico-dot" viewBox="0 0 24 24">
    <circle cx="12" cy="12" r="4" />
  </symbol>

  <!-- balón -->
  <symbol id="ico-ball" viewBox="0 0 24 24">
    <circle cx="12" cy="12" r="9" fill="none" stroke="currentColor" stroke-width="1.8" />
    <path d="M12 7l3 2-1 3h-4L9 9l3-2z" fill="currentColor" />
    <path d="M7.8 10.2L9 9l1 3-1.8 2.7" fill="none" stroke="currentColor" stroke-width="1.2" stroke-linecap="round" />
    <path d="M16.2 10.2L15 9l-1 3 1.8 2.7" fill="none" stroke="currentColor" stroke-width="1.2" stroke-linecap="round" />
    <path d="M10 14.7l2 1.3 2-1.3" fill="none" stroke="currentColor" stroke-width="1.2" stroke-linecap="round" />
  </symbol>

  <!-- sustitución (dos flechas) -->
  <symbol id="ico-sub" viewBox="0 0 24 24">
    <path d="M7 8h8" fill="none" stroke="currentColor" stroke-width="1.8" stroke-linecap="round"/>
    <path d="M13 5l3 3-3 3" fill="none" stroke="currentColor" stroke-width="1.8" stroke-linecap="round" stroke-linejoin="round"/>
    <path d="M17 16H9" fill="none" stroke="currentColor" stroke-width="1.8" stroke-linecap="round"/>
    <path d="M11 13l-3 3 3 3" fill="none" stroke="currentColor" stroke-width="1.8" stroke-linecap="round" stroke-linejoin="round"/>
  </symbol>

  <!-- lesión -->
  <symbol id="ico-injury" viewBox="0 0 24 24">
    <path d="M12 6v12" fill="none" stroke="currentColor" stroke-width="2" stroke-linecap="round"/>
    <path d="M6 12h12" fill="none" stroke="currentColor" stroke-width="2" stroke-linecap="round"/>
  </symbol>

  <!-- tarjetas (por compatibilidad: se pueden ocultar vía CSS) -->
  <symbol id="ico-yellow" viewBox="0 0 24 24">
    <rect x="7" y="4" width="10" height="16" rx="2" />
  </symbol>
  <symbol id="ico-red" viewBox="0 0 24 24">
    <rect x="7" y="4" width="10" height="16" rx="2" />
  </symbol>
</svg>