<svg xmlns="http://www.w3.org/2000/svg" viewBox="0 0 750 450" xmlns:bx="https://boxy-svg.com">
  <defs>
    <bx:export>
      <bx:file format="svg" path="Sin título.svg"></bx:file>
    </bx:export>
  </defs>
  <path style="fill: rgb(40, 197, 178); stroke: rgb(40, 197, 178);" d="M 3.887 6.286 L 271.145 188.125 C 263.638 195.278 252.934 224.219 253.9 235.542 L 28.429 122.927 C 21.862 114.056 3.732 31.894 3.887 6.286 Z"></path>
  <path style="fill: rgb(40, 197, 178); stroke: rgb(40, 197, 178);" d="M 234.024 239.93 L 40.055 151.763 C 59.752 199.862 71.226 223.667 93.42 249.675 L 237.522 276.758 C 235.207 264.21 233.504 253.235 234.024 239.93 Z"></path>
  <path style="fill: rgb(40, 197, 178); stroke: rgb(40, 197, 178);" d="M 115.23 271.949 C 133.674 295.713 149.778 315.69 181.587 337.379 L 253.05 319.745 C 249.035 313.697 239.952 293.141 239.592 287.726 L 115.23 271.949 Z"></path>
  <path style="fill: rgb(40, 197, 178); stroke: rgb(40, 197, 178);" d="M 209.43 349.908 L 262.33 334.594 C 270.196 345.359 274.659 351.866 284.14 357.796 L 258.618 372.646 L 209.43 349.908 Z"></path>
  <path style="fill: rgb(40, 197, 178); stroke: rgb(40, 197, 178);" d="M 345.074 386.945 L 370.504 439.065 L 397.19 386.526 L 370.893 388.558 L 345.074 386.945 Z"></path>
  <path style="fill: rgb(40, 197, 178); stroke: rgb(40, 197, 178);" d="M 241.394 241.209 L 253.969 246.798 C 251.583 264.165 255.63 279.194 261.247 294.139 C 267.29 310.218 276.942 325.291 288.901 337.621 C 298.846 347.874 311.087 356.388 324.343 361.71 C 339.03 367.607 355.339 369.642 371.166 369.584 C 385.953 369.53 401.117 367.373 414.858 361.909 C 428.522 356.476 441.423 348.154 451.684 337.621 C 465.266 323.678 475.866 306.331 482.544 288.048 C 487.472 274.556 488.132 262.653 488.711 245.401 L 500.588 239.812 C 500.588 239.812 500.417 266.945 497.382 280.055 C 494.029 294.54 487.893 311.252 481.026 321.552 C 475.019 330.563 468.296 339.755 460.169 347.195 C 448.734 357.664 436.008 367.423 421.642 373.252 C 405.641 379.744 387.907 382.642 370.642 382.334 C 351.826 381.998 332.803 377.737 315.449 370.457 C 301.802 364.732 288.834 356.504 278.372 346.037 C 268.509 336.17 261.613 323.548 255.367 311.073 C 250.757 301.866 247.081 292.077 244.876 282.019 C 241.952 268.683 241.394 241.209 241.394 241.209 Z"></path>
  <path style="fill: rgb(40, 197, 178); stroke: rgb(40, 197, 178);" d="M 370.145 150.399 C 346.802 150.007 321.393 158.235 304.221 174.051 C 283.349 193.275 269.268 223.174 268.995 251.548 C 268.738 278.22 281.586 306.414 300.699 325.02 C 318.823 342.663 345.859 353.375 371.151 353.201 C 396.041 353.03 422.379 342.002 440.094 324.517 C 459.078 305.78 471.709 277.718 471.798 251.045 C 471.885 224.812 459.858 196.918 441.1 178.58 C 422.902 160.79 395.59 150.826 370.145 150.399 Z"></path>
  <path style="fill: rgb(40, 197, 178); stroke: rgb(40, 197, 178);" d="M 266.551 171.347 L 275.808 179.576 C 290.217 163.031 302.298 152.603 319.009 144.603 C 335.144 136.879 353.58 133.233 371.468 133.289 C 388.854 133.343 406.765 136.965 422.383 144.603 C 438.571 152.52 449.671 163.818 464.041 179.061 L 474.327 172.89 C 465.498 160.474 462.174 156.823 454.27 150.775 C 439.9 139.78 423.179 131.54 405.926 126.089 C 394.205 122.386 381.703 120.909 369.411 120.946 C 357.628 120.982 345.694 122.604 334.438 126.089 C 318.399 131.055 302.791 138.372 289.18 148.204 C 280.434 154.522 274.403 162.107 266.551 171.347 Z"></path>
  <path style="fill: rgb(255, 255, 255); stroke: rgb(255, 255, 255);" d="M 310.781 180.604 L 341.269 221.929 L 302.731 196.116 L 338.859 230.124 C 335.906 232.515 334.904 243.195 329.633 244.476 L 297.192 247.742 L 276.837 252.092 L 318.221 256.641 L 282.629 260.901 L 333.891 259.929 C 337.122 262.807 338.985 270.151 338.023 272.748 L 305.638 319.465 L 338.572 293.251 L 323.514 310.934 L 353.816 281.117 C 355.766 282.073 363.228 280.723 364.327 283.7 L 371.468 346.722 L 378.353 293.96 L 379.98 334.671 L 382.895 284.603 C 382.895 284.603 389.951 277.518 395.843 282.824 C 410.088 295.65 435.241 320.493 435.241 320.493 C 435.241 320.493 405.209 282.461 406.715 280.436 C 408.518 278.012 442.339 306.243 442.339 306.243 L 403.153 270.203 C 403.153 270.203 400.271 260.513 407.216 258.892 C 425.791 254.556 464.556 251.063 464.556 251.063 L 427.835 245.112 L 460.766 238.482 L 404.385 239.143 C 403.495 233.413 396.297 232.072 402.986 224.025 L 422.41 202.236 L 437.298 184.204 L 403.813 208.405 L 422.902 184.586 L 390.461 212.489 C 387.535 212.382 379.557 217.231 378.31 213.946 L 370.439 157.975 L 366.287 198.086 L 360.403 163.676 L 360.896 218.423 C 358.327 218.481 354.84 221.581 351.622 219.267 L 325.641 193.474 L 310.781 180.604 Z"></path>
  <path style="stroke-width: 1; transform-box: fill-box; transform-origin: 50% 50%; fill: rgb(40, 197, 178); stroke: rgb(40, 197, 178);" d="M 469.355 234.061 L 733.715 53.104 C 726.41 46.14 715.061 16.734 715.995 5.723 L 493.225 119.378 C 486.844 128.016 469.209 209.15 469.355 234.061 Z" transform="matrix(-1, 0, 0, -1, 0.000206, 0.000024)"></path>
  <path style="stroke-width: 1; fill: rgb(40, 197, 178); stroke: rgb(40, 197, 178); transform-box: fill-box; transform-origin: 50% 50%;" d="M 696.751 186.506 L 504.764 273.941 C 523.927 227.155 535.427 200.91 557.021 175.612 L 697.536 149.746 C 695.915 161.965 695.449 173.484 696.751 186.506 Z" transform="matrix(-1, 0, 0, -1, 0.013077, -0.000031)"></path>
  <path style="stroke-width: 1; fill: rgb(40, 197, 178); stroke: rgb(40, 197, 178); transform-box: fill-box; transform-origin: 50% 50%;" d="M 488.083 335.729 C 506.019 312.614 522.308 292.241 553.25 271.144 L 623.855 288.137 C 617.182 299.158 614.263 306.456 610.932 319.756 L 488.083 335.729 Z" transform="matrix(-1, 0, 0, -1, 0.160034, -0.000046)"></path>
  <path style="stroke-width: 1; fill: rgb(40, 197, 178); stroke: rgb(40, 197, 178); transform-box: fill-box; transform-origin: 50% 50%;" d="M 457.006 356.627 L 511.913 372.15 C 519.52 361.762 524.061 357.507 532.824 348.955 L 508.619 333.882 L 457.006 356.627 Z" transform="matrix(-1, 0, 0, -1, 0.000168, 0.000061)"></path>
</svg>