<?xml version="1.0" encoding="utf-8"?>
<!-- Generator: Adobe Illustrator 23.0.1, SVG Export Plug-In . SVG Version: 6.00 Build 0)  -->
<svg version="1.1" id="Layer_1" xmlns="http://www.w3.org/2000/svg" xmlns:xlink="http://www.w3.org/1999/xlink" x="0px" y="0px"
	 viewBox="0 0 529.766 309.579" enable-background="new 0 0 529.766 309.579" xml:space="preserve">
<g>
	<path fill="#002F63" d="M321.647,96.432c0-31.03-25.301-56.809-56.809-56.809c-31.03,0-56.331,25.301-56.331,56.809
		c0,31.03,25.301,56.331,56.809,56.331c12.412,0,23.869-3.819,32.939-10.502l-15.754-15.754c-5.251,2.864-10.98,4.774-17.186,4.774
		c-19.095,0-34.849-15.276-34.849-34.849c0-19.095,15.276-34.849,34.849-34.849c15.754,0,29.12,10.98,33.417,25.301h-55.376
		l17.663,18.141h59.673C321.647,102.16,321.647,99.296,321.647,96.432z"/>
	<path fill="#002F63" d="M310.666,154.672c-12.412,10.025-28.166,15.754-45.351,15.754c-41.055,0-73.994-32.939-73.994-73.994
		c0-17.186,5.729-32.939,15.754-45.351l-16.231-16.231c-13.844,16.708-21.96,38.191-21.96,61.583
		c0,52.99,42.965,96.432,96.431,96.432c23.392,0,44.874-8.116,61.583-21.96L310.666,154.672z"/>
	<path fill="#002F63" d="M219.487,38.191c12.412-10.025,28.166-15.754,45.351-15.754c41.055,0,73.995,32.939,73.995,73.994
		c0,17.186-5.729,32.939-15.754,45.351l15.754,15.754c13.844-16.708,21.959-38.19,21.959-61.583C361.27,42.964,318.305,0,265.315,0
		c-23.392,0-44.874,8.116-61.582,21.96L219.487,38.191z"/>
</g>
<g>
	<path fill="#002F63" d="M85.517,248.495H68.858v58.863h16.659v-29.987c0-11.106,11.106-13.328,21.101-13.328v-16.659
		c-8.885,0-15.548,2.221-21.101,7.774V248.495z"/>
	<path fill="#002F63" d="M222.125,251.827c-4.443-3.332-9.996-4.442-16.66-4.442c-16.659,0-28.876,13.328-28.876,31.098
		c0,17.77,13.327,31.097,28.876,31.097c6.664,0,12.217-2.221,16.66-4.443v3.332h16.659v-87.739h-16.659V251.827z M222.125,287.367
		c-3.332,5.553-8.885,6.664-14.439,6.664c-8.885,0-15.549-7.775-15.549-16.66c0-8.885,6.664-16.659,15.549-16.659
		c5.554,0,9.996,2.221,14.439,6.664V287.367z"/>
	<path fill="#002F63" d="M269.881,248.495h-16.659v58.863h16.659V248.495z"/>
	<path fill="#002F63" d="M309.863,285.146l-15.549-36.651h-17.77l25.545,58.863h15.549l25.544-58.863h-18.88L309.863,285.146z"/>
	<path fill="#002F63" d="M366.506,248.495h-16.659v58.863h16.659V248.495z"/>
	<path fill="#002F63" d="M414.26,271.818l-11.106-2.221c-5.553-1.111-6.664-3.332-6.664-5.554c0-2.221,3.332-5.553,8.885-5.553
		c5.554,0,9.996,2.221,11.106,7.774h15.549c-1.11-16.659-16.659-19.991-26.655-19.991c-15.549,0-25.544,7.775-25.544,19.991
		c0,11.106,8.885,15.549,17.77,17.77l12.216,2.221c4.443,1.111,5.554,2.221,5.554,4.442c0,3.332-4.443,5.554-9.996,5.554
		c-6.664,0-11.106-2.221-12.216-8.885H377.61c1.11,16.659,14.438,22.212,27.765,22.212c15.549,0,26.655-6.664,26.655-19.991
		C432.031,278.482,424.257,274.039,414.26,271.818z"/>
	<path fill="#002F63" d="M459.797,248.495h-16.659v58.863h16.659V248.495z"/>
	<path fill="#002F63" d="M31.097,247.384C12.217,247.384,0,260.712,0,278.482c0,17.77,12.217,31.097,31.097,31.097
		c14.438,0,25.544-7.774,27.766-18.88H42.204c-2.221,2.221-5.553,4.443-9.996,4.443c-6.664,0-12.217-3.332-14.438-9.995h43.314
		c0-2.221,0-4.442,0-7.775C61.084,259.601,47.757,247.384,31.097,247.384z M16.659,272.928c2.221-7.774,7.774-11.106,13.328-11.106
		c6.664,0,12.217,4.443,12.217,11.106H16.659z"/>
	<path fill="#002F63" d="M139.939,247.384c-18.88,0-31.097,13.328-31.097,31.098c0,17.77,12.216,31.097,32.208,31.097
		c14.438,0,24.434-7.774,27.765-18.88h-17.77c-2.221,3.332-5.553,4.443-9.995,4.443c-6.664,0-12.217-3.332-14.439-9.995h43.315
		c0-2.221,0-4.442,0-7.775C168.815,259.601,156.599,247.384,139.939,247.384z M125.501,272.928
		c2.221-7.774,7.774-11.106,13.328-11.106c6.664,0,12.216,4.443,12.216,11.106H125.501z"/>
	<path fill="#002F63" d="M529.766,277.371c0-17.77-12.216-29.986-28.876-29.986c-18.88,0-31.097,13.328-31.097,31.098
		c0,17.77,12.216,31.097,31.097,31.097c14.439,0,24.434-7.774,27.766-18.88h-17.77c-2.221,3.332-5.553,4.443-9.996,4.443
		c-6.664,0-12.217-3.332-14.438-9.995h43.314C529.766,281.813,529.766,279.592,529.766,277.371z M486.452,272.928
		c2.221-7.774,7.774-11.106,13.328-11.106c6.664,0,12.216,4.443,12.216,11.106H486.452z"/>
</g>
</svg>
