<?xml version="1.0" encoding="UTF-8"?>
<svg width="124.05" height="68.727" version="1.1" viewBox="0 0 124.05 68.727" xmlns="http://www.w3.org/2000/svg">
    <g transform="translate(-80.648 -14.477)" fill="#3d195b">
        <path d="m174.44 74.428c-4.142 0-9.195-2.246-9.195-9.266v-10.04h5.193v9.688c0 3.229 1.476 4.633 4.002 4.633 2.316 0 4.002-1.614 4.002-4.633v-9.688h5.195v10.04c0 7.02-5.125 9.266-9.197 9.266"/>
        <path d="m129.72 54.842c-4.984 0-9.3359 4.4225-9.3359 9.6875 0 5.335 4.3519 9.8984 9.3359 9.8984 2.598 0 4.7022-1.1919 5.8262-2.8789l0.5625 2.3867h4.5625v-18.814h-4.5625l-0.5625 2.457c-1.124-1.755-3.0172-2.7363-5.8262-2.7363zm1.0527 4.7051c2.738 0 4.8438 2.1044 4.8438 4.9824 0 2.738-2.1058 4.9141-4.8438 4.9141-2.809 0-4.9141-2.1761-4.9141-4.9141 0-2.878 2.1051-4.9824 4.9141-4.9824z"/>
        <path d="m80.648 73.937v-27.87h5.545v22.605h12.075v5.265z"/>
        <path d="m109.36 54.631c-6.107 0-9.9668 4.7028-9.9668 9.9688 0 5.827 4.2834 9.8281 10.109 9.8281 3.16 0 6.1076-1.2621 8.1426-3.5801l-3.1582-3.2305c-1.336 1.404-2.9497 2.1777-5.0547 2.1777-2.316 0-4.2131-1.4057-4.7051-3.5117h13.762c0.14-0.701 0.14062-1.3332 0.14062-1.8242 0-6.389-4.7055-9.8281-9.2695-9.8281zm-0.13867 4.5645c2.107 0 3.8632 1.3328 4.2832 3.2988h-8.7051c0.42199-2.036 2.2449-3.2988 4.4219-3.2988z"/>
        <path d="m195.43 54.631c-6.108 0-9.9688 4.7028-9.9688 9.9688 0 5.827 4.2814 9.8281 10.109 9.8281 3.16 0 6.1066-1.2621 8.1426-3.5801l-3.1582-3.2305c-1.334 1.404-2.9487 2.1777-5.0547 2.1777-2.316 0-4.2121-1.4057-4.7031-3.5117h13.758c0.143-0.701 0.14258-1.3332 0.14258-1.8242 0-6.389-4.7046-9.8281-9.2676-9.8281zm-0.14062 4.5645c2.106 0 3.8612 1.3328 4.2832 3.2988h-8.7051c0.421-2.036 2.2459-3.2988 4.4219-3.2988z"/>
        <path d="m152.32 54.842c-5.335 0-9.6875 4.2105-9.6875 9.6875 0 5.545 4.2109 9.8984 9.5469 9.8984 2.036 0 3.8613-0.6311 5.4043-2.2461v1.334c0 2.808-1.6839 4.7051-5.5449 4.7051-2.457 0-4.3519-1.1953-5.7559-2.5293l-2.8789 4.002c2.246 2.176 5.0543 3.5098 8.9863 3.5098 2.877 0 5.2655-0.98045 7.0195-2.3145 2.317-1.825 3.2988-4.283 3.2988-7.793v-17.973h-4.5625l-0.5625 2.3867c-1.122-1.615-3.0877-2.667-5.2637-2.668zm0.63086 4.7051c2.737 0 4.9141 2.1044 4.9141 4.9824 0 2.738-2.1771 4.9141-4.9141 4.9141s-4.9141-2.1761-4.9141-4.9141c0-2.878 2.1771-4.9824 4.9141-4.9824z"/>
        <path d="m80.648 14.477v28.572h5.5449v-9.3359h3.5098c5.967 0 10.32-3.5825 10.32-9.6895 0-6.038-4.4233-9.5469-10.32-9.5469zm5.5449 5.2637h3.2305c2.809 0 4.8438 1.4732 4.8438 4.2832 0 2.809-2.0348 4.3535-4.8438 4.3535h-3.2305z"/>
        <path d="m167.49 21.708c-1.1804 0.01835-2.3524-0.65442-2.8835-1.7171-0.67161-1.2818-0.34069-3.0028 0.78268-3.9235 1.1922-1.0237 3.1342-0.9935 4.2885 0.07545 1.1165 0.9867 1.3728 2.7854 0.58357 4.0476-0.5723 0.95399-1.6652 1.53-2.7712 1.5175zm-2.667 2.526h5.194v18.813h-5.194z"/>
        <path d="m157.03 31.956c0-2.036-1.123-3.3-2.879-3.3-2.035 0-3.088 1.264-3.088 3.371v11.021h-5.195v-11.092c0-2.036-1.123-3.3-2.878-3.3-2.036 0-3.089 1.264-3.089 3.371v11.021h-5.195v-18.814h4.563l0.563 2.457s1.123-2.948 4.633-2.948c2.178 0 4.002 0.912 5.266 2.809l0.141 0.21 0.141-0.21c1.826-2.598 4.072-2.809 5.476-2.809 4.001 0 6.739 3.019 6.739 7.301v12.005h-5.195v-11.093z"/>
        <path d="m193.32 43.049v-18.815h4.492l0.562 2.738c0.843-1.756 2.527-2.948 4.774-2.948 0.492 0 0.982 0.069 1.475 0.21v4.984c-0.633-0.14-1.193-0.211-1.826-0.211-2.527 0-4.281 1.545-4.281 4.563v9.478h-5.196z"/>
        <path d="m101.78 43.049v-18.815h4.493l0.563 2.738c0.841-1.756 2.525-2.948 4.773-2.948 0.491 0 0.982 0.069 1.474 0.21v4.984c-0.633-0.14-1.192-0.211-1.825-0.211-2.527 0-4.282 1.545-4.282 4.563v9.478h-5.196z"/>
        <path d="m182.02 23.742c-6.108-1e-6 -9.9688 4.7047-9.9688 9.9707 0 5.827 4.2834 9.8262 10.109 9.8262 3.158 1e-6 6.1066-1.2631 8.1426-3.5801l-3.1582-3.2285c-1.335 1.405-2.9497 2.1777-5.0547 2.1777-2.316 0-4.2101-1.4057-4.7031-3.5117h13.76c0.14-0.701 0.14063-1.3352 0.14063-1.8262 0-6.389-4.7046-9.8281-9.2676-9.8281zm-0.14062 4.5645c2.106 0 3.8612 1.3328 4.2812 3.2988h-8.7051c0.423-2.036 2.2478-3.2988 4.4238-3.2988z"/>
        <path d="m123.4 23.742c-6.108-1e-6 -9.9688 4.7047-9.9688 9.9707 0 5.827 4.2834 9.8262 10.109 9.8262 3.16 1e-6 6.1095-1.2631 8.1445-3.5801l-3.1602-3.2285c-1.334 1.405-2.9487 2.1777-5.0547 2.1777-2.316 0-4.2131-1.4057-4.7031-3.5117h13.76c0.14-0.701 0.14063-1.3352 0.14063-1.8262 0-6.389-4.7046-9.8281-9.2676-9.8281zm-0.14062 4.5645c2.107 0 3.8612 1.3328 4.2812 3.2988h-8.7031c0.42-2.036 2.2449-3.2988 4.4219-3.2988z"/>
    </g>
</svg>
