<?xml version="1.0" encoding="UTF-8"?><svg id="a" xmlns="http://www.w3.org/2000/svg" width="618.07" height="624.87" xmlns:xlink="http://www.w3.org/1999/xlink" viewBox="0 0 618.07 624.87"><defs><clipPath id="b"><circle cx="317.14" cy="300" r="300" fill="none"/></clipPath><radialGradient id="c" cx="317.14" cy="300" fx="104.65" fy="46.3" r="504.03" gradientUnits="userSpaceOnUse"><stop offset=".15" stop-color="#fff" stop-opacity=".3"/><stop offset=".49" stop-color="#989697" stop-opacity="0"/><stop offset=".69" stop-color="#000" stop-opacity=".5"/></radialGradient></defs><g clip-path="url(#b)"><g><path d="M317.14,599c-79.87,0-154.95-31.1-211.42-87.58S18.14,379.87,18.14,300,49.25,145.05,105.72,88.58,237.28,1,317.14,1s154.95,31.1,211.42,87.58,87.58,131.56,87.58,211.42-31.1,154.95-87.58,211.42-131.56,87.58-211.42,87.58Z" fill="url(#c)"/><path d="M317.14,2c40.23,0,79.26,7.88,115.99,23.42,35.49,15.01,67.35,36.5,94.72,63.86,27.37,27.37,48.86,59.24,63.86,94.72,15.54,36.74,23.42,75.76,23.42,115.99s-7.88,79.26-23.42,115.99c-15.01,35.49-36.5,67.35-63.86,94.72-27.37,27.37-59.24,48.86-94.72,63.86-36.74,15.54-75.76,23.42-115.99,23.42s-79.26-7.88-115.99-23.42c-35.49-15.01-67.35-36.5-94.72-63.86-27.37-27.37-48.86-59.24-63.86-94.72-15.54-36.74-23.42-75.76-23.42-115.99s7.88-79.26,23.42-115.99c15.01-35.49,36.5-67.35,63.86-94.72,27.37-27.37,59.24-48.86,94.72-63.86C237.89,9.88,276.91,2,317.14,2m0-2C151.46,0,17.14,134.31,17.14,300s134.31,300,300,300,300-134.31,300-300S482.83,0,317.14,0h0Z"/></g><g><path d="M119.56,90.36s-33.35,45.61-30.9,95.15c0,0,53.46,5.89,90.73,3.92l89.26-90.24s-17.66-38.25-45.61-60.81c0,0-58.6,19.05-103.48,51.99Z" stroke="#000" stroke-miterlimit="10"/><path d="M220.85,321.7s-37.39,38.62-56.55,101.04c0,0,28.12,53.46,88.37,93.62,0,0,60.25-11.43,115.56-50.37,0,0-.31-82.5-20.08-123.6l-127.31-20.7Z" stroke="#000" stroke-miterlimit="10"/><path d="M16.73,287.16h15.97s7.48,62.43,37.7,113.57c0,0-2.26,29.74,5.63,56.06l-8.7,20.85L.53,368.82l16.21-81.66Z" stroke="#000" stroke-miterlimit="10"/><path d="M475.26,87.69s54.79,38.07,87.73,93.93c0,0,.14,30.35-20.54,86.43,0,0-33.24-2.12-101.85-24.4,0,0-24.4-56.23-41.38-112.11,0,0,30.77-32.18,76.03-43.85Z" stroke="#000" stroke-miterlimit="10"/><path d="M563.22,391.58s-43.28,55.56-84.8,92.99c0,0,1.17,29.83-14.62,59.66l43.28,1.17,100.01-126.91s-11.11-14.62-43.86-26.9Z" stroke="#000" stroke-miterlimit="10"/><path d="M32.71,287.16s13.59-62.14,55.96-101.65" fill="none" stroke="#000" stroke-miterlimit="10" stroke-width="2"/><path d="M179.4,189.43s-2.08,78.21,41.46,132.27" fill="none" stroke="#000" stroke-miterlimit="10" stroke-width="2"/><path d="M70.41,400.73s4.44,26.1,93.9,22.01" fill="none" stroke="#000" stroke-miterlimit="10" stroke-width="2"/><line x1="119.56" y1="90.36" x2="92.91" y2="90.76" fill="none" stroke="#000" stroke-miterlimit="10" stroke-width="2"/><path d="M373.36,2.38c-111.02,5.39-150.31,35.99-150.31,35.99" fill="none" stroke="#000" stroke-miterlimit="10" stroke-width="2"/><path d="M268.66,99.19s75.85,3.24,130.57,32.36" fill="none" stroke="#000" stroke-miterlimit="10" stroke-width="2"/><path d="M348.16,342.4s58.46-46.21,92.45-98.75" fill="none" stroke="#000" stroke-miterlimit="10" stroke-width="2"/><path d="M251.99,572.42s22,23.76,100.91,25.52l-19.1,26.33-180.31-65.68v-11.34s69.24,31.13,98.5,25.16Z" stroke="#000" stroke-miterlimit="10"/><path d="M76.04,456.79s35.76,73.36,77.45,90.47" fill="none" stroke="#000" stroke-miterlimit="10" stroke-width="2"/><path d="M368.24,466s48.13,23.68,110.18,18.57" fill="none" stroke="#000" stroke-miterlimit="10" stroke-width="2"/><path d="M372.17,596.25s63.6-14.98,91.63-52.02" fill="none" stroke="#000" stroke-miterlimit="10" stroke-width="2"/><path d="M542.46,268.05s19.96,56.76,20.77,123.53" fill="none" stroke="#000" stroke-miterlimit="10" stroke-width="2"/><path d="M475.26,87.69s-10.28-32.39-43.38-69.91" fill="none" stroke="#000" stroke-miterlimit="10" stroke-width="2"/><path d="M562.99,181.63s32.07,5.19,54.15,57.88" fill="none" stroke="#000" stroke-miterlimit="10" stroke-width="2"/><path d="M251.99,572.42s-4.3-29.03,.69-56.05" fill="none" stroke="#000" stroke-miterlimit="10" stroke-width="2"/></g></g></svg>