<?xml version="1.0" encoding="utf-8"?>
<svg viewBox="0 0 33.5 44" xmlns="http://www.w3.org/2000/svg">
  <path d="M 16.858 0.28 L 16.897 0.28 L 16.897 0.367 L 16.896 0.367 C 17.369 1.478 18.209 3.944 18.209 6.157 C 18.209 8.369 18.351 8.718 18.351 9.202 C 18.351 9.686 20.036 18.892 20.036 18.892 L 21.303 22.004 L 21.303 22.527 L 33.004 32.757 L 33.016 32.757 C 33.014 31.6 33.319 36.891 33.319 36.891 C 33.24 36.941 33.094 36.9 33.019 36.876 L 33.004 36.884 C 33.004 36.888 33.004 36.892 33.004 36.892 L 32.988 36.88 L 21.615 34.1 L 21.615 35.75 L 27.76 41.665 C 27.76 41.665 27.245 42.545 26.97 42.878 C 26.697 43.211 26.365 43.75 26.24 43.759 C 26.116 43.767 7.447 43.767 7.321 43.759 C 7.196 43.75 6.864 43.212 6.591 42.879 C 6.317 42.546 5.802 41.666 5.802 41.666 L 11.946 35.75 L 11.946 34.101 L 0.571 36.882 L 0.557 36.893 C 0.557 36.893 0.557 36.89 0.557 36.886 L 0.542 36.878 C 0.467 36.9 0.321 36.943 0.242 36.893 C 0.242 36.893 0.546 31.601 0.545 32.758 L 0.557 32.758 L 12.258 22.528 L 12.258 22.005 L 13.524 18.893 C 13.524 18.893 15.21 9.686 15.21 9.203 C 15.21 8.72 15.351 8.37 15.351 6.158 C 15.351 3.944 16.19 1.479 16.664 0.368 L 16.664 0.28 L 16.704 0.28" style="fill: rgb(214, 111, 111); transform-origin: 16.7805px 22.0225px;" transform="matrix(-0.999996960163, -0.002491000108, 0.002491000108, -0.999996960163, 3.09895e-7, -4.90698e-7)"/>
</svg>