<?xml version="1.0" encoding="utf-8"?>
<svg viewBox="0 0 33.5 44" xmlns="http://www.w3.org/2000/svg">
  <g id="g4705" transform="matrix(0, 0.024258002638816833, -0.02425200305879116, 0, 29.695865631103516, 14.220734596252438)" style="stroke:#000000;stroke-width:0.9235636">
    <path d="m -183.32943,467.65683 142.615144,-8.86608 159.285716,-139.64285 208.0843,-58.52811 406.82904,-357.186207 83.65809,0 44.84923,62.209418 42.20413,235.209209 -86.23561,75.71282 6.34203,-3e-5 217.12596,-190.63142 75.7458,21.98046 37.9286,211.38153 -144.732,40.61396 -25.86829,0.78206 -10.78188,2.04239 38.37537,2.42806 33.321,5.36975 53.8685,15.04465 c 3.7211,1.03924 6.1164,59.62457 2.7309,60.88388 l -53.088,19.74747 -33.1649,7.78529 2.9786,2.14528 2.074,9.93684 c 80.9597,2.634 154.1117,18.80018 205.2156,61.64412 -51.1039,42.84394 -124.2559,59.01012 -205.2156,61.64412 l -2.074,9.93684 -2.9786,2.14528 33.1649,7.78529 53.088,19.74747 c 3.3855,1.25931 0.9902,59.84464 -2.7309,60.88388 l -53.8685,15.04465 -33.321,5.36975 -38.37537,2.42806 10.78188,2.04239 25.86829,0.78206 144.732,40.61396 -37.9286,211.38153 -75.7458,21.9805 -217.12596,-190.63146 -6.34203,-3e-5 86.23561,75.71282 -42.20413,235.20917 -44.84923,62.2095 -83.65809,0 L 326.65573,834.81885 118.57143,776.29074 -40.714286,636.64789 -183.32943,627.78181 c -228.48848,-14.20464 -317.45526,-43.82684 -401.46508,-80.06249 84.00982,-36.23565 172.9766,-65.85785 401.46508,-80.06249 z" style="color: rgb(0, 0, 0); stroke: rgb(0, 0, 0); stroke-width: 2.77069; stroke-linecap: round; stroke-linejoin: round; stroke-miterlimit: 4; stroke-opacity: 1; stroke-dasharray: none; stroke-dashoffset: 0; marker: none; visibility: visible; display: inline; overflow: visible; fill: rgb(98, 113, 116);" id="path4195"/>
    <path id="path3938" d="M -38.288984,456.66453 92.934034,441.21989 171.94445,304.13561" style="color:#000000;fill:none;stroke:#000000;stroke-width:0.9235636;stroke-linecap:round;stroke-linejoin:round;stroke-miterlimit:4;stroke-opacity:1;stroke-dasharray:none;stroke-dashoffset:0;marker:none;visibility:visible;display:inline;overflow:visible;enable-background:accumulate"/>
    <path d="m 326.65573,260.61979 146.51309,0 11.65306,15.94525 333.13877,0" style="color:#000000;fill:none;stroke:#000000;stroke-width:0.9235636;stroke-linecap:round;stroke-linejoin:round;stroke-miterlimit:4;stroke-opacity:1;stroke-dasharray:none;stroke-dashoffset:0;marker:none;visibility:visible;display:inline;overflow:visible;enable-background:accumulate" id="path4002"/>
    <path id="path4007" d="m 744.48242,317.98128 163.89725,-77.27667 58.08377,0 52.52796,72.73099 -103.79319,9.09137 -59.06475,0.56372 c -16.82351,0.16057 -101.83382,-0.0771 -111.65104,-5.10941 z" style="color:#000000;fill:none;stroke:#000000;stroke-width:2.77069068;stroke-linecap:round;stroke-linejoin:round;stroke-miterlimit:4;stroke-opacity:1;stroke-dasharray:none;stroke-dashoffset:0;marker:none;visibility:visible;display:inline;overflow:visible;enable-background:accumulate"/>
    <path id="path4032" d="m 1012.8193,304.88957 142.2837,14.406" style="color:#000000;fill:none;stroke:#000000;stroke-width:2.77069068;stroke-linecap:round;stroke-linejoin:round;stroke-miterlimit:4;stroke-opacity:1;stroke-dasharray:none;stroke-dashoffset:0;marker:none;visibility:visible;display:inline;overflow:visible;enable-background:accumulate"/>
    <path style="color:#000000;fill:none;stroke:#000000;stroke-width:0.9235636;stroke-linecap:round;stroke-linejoin:round;stroke-miterlimit:4;stroke-opacity:1;stroke-dasharray:none;stroke-dashoffset:0;marker:none;visibility:visible;display:inline;overflow:visible;enable-background:accumulate" d="m 956.22083,318.93375 198.88217,0.36182" id="path4051"/>
    <path id="path4053" d="m 1155.103,319.29557 -181.38217,23.56675 c -54.96527,7.14157 -198.21734,8.46915 -291.93511,-1.92871 l -12.14286,-17.14286 c 40.6784,-16.9136 73.50244,-24.66095 128.68962,-31.19948" style="color:#000000;fill:none;stroke:#000000;stroke-width:2.77069068;stroke-linecap:round;stroke-linejoin:round;stroke-miterlimit:4;stroke-opacity:1;stroke-dasharray:none;stroke-dashoffset:0;marker:none;visibility:visible;display:inline;overflow:visible;enable-background:accumulate"/>
    <path id="path4055" d="m 669.64286,323.79075 36.78571,-5.35714 26.42857,3.21429 4.28572,9.28571 -55.35714,10 z" style="color:#000000;fill:none;stroke:#000000;stroke-width:0.9235636;stroke-linecap:round;stroke-linejoin:round;stroke-miterlimit:4;stroke-opacity:1;stroke-dasharray:none;stroke-dashoffset:0;marker:none;visibility:visible;display:inline;overflow:visible;enable-background:accumulate"/>
    <path id="path4063" d="M 737.14286,330.93361 755,336.6479 l 28.21429,3.92857" style="color:#000000;fill:none;stroke:#000000;stroke-width:0.9235636;stroke-linecap:round;stroke-linejoin:round;stroke-miterlimit:4;stroke-opacity:1;stroke-dasharray:none;stroke-dashoffset:0;marker:none;visibility:visible;display:inline;overflow:visible;enable-background:accumulate"/>
    <path id="path4071" d="m 660.29216,-32.305051 57.65427,0 -333.6364,292.924841" style="color:#000000;fill:none;stroke:#000000;stroke-width:0.9235636;stroke-linecap:round;stroke-linejoin:round;stroke-miterlimit:4;stroke-opacity:1;stroke-dasharray:none;stroke-dashoffset:0;marker:none;visibility:visible;display:inline;overflow:visible;enable-background:accumulate"/>
    <path id="path4079" d="m 885.07155,94.267908 -81.93951,0" style="color:#000000;fill:none;stroke:#000000;stroke-width:0.9235636;stroke-linecap:round;stroke-linejoin:round;stroke-miterlimit:4;stroke-opacity:1;stroke-dasharray:none;stroke-dashoffset:0;marker:none;visibility:visible;display:inline;overflow:visible;enable-background:accumulate"/>
    <path id="path4087" d="m 861.99209,-34.356999 -36.99209,0 -21.86796,128.624907 30.27637,168.734322" style="color:#000000;fill:none;stroke:#000000;stroke-width:0.9235636;stroke-linecap:round;stroke-linejoin:round;stroke-miterlimit:4;stroke-opacity:1;stroke-dasharray:none;stroke-dashoffset:0;marker:none;visibility:visible;display:inline;overflow:visible;enable-background:accumulate"/>
    <path id="path4095" d="m 733.84519,382.30454 109.65667,-10.84119 c 39.65689,-3.92068 89.58081,-7.50036 130.21897,-8.72937 l 0,-19.87166" style="color:#000000;fill:none;stroke:#000000;stroke-width:0.9235636;stroke-linecap:round;stroke-linejoin:round;stroke-miterlimit:4;stroke-opacity:1;stroke-dasharray:none;stroke-dashoffset:0;marker:none;visibility:visible;display:inline;overflow:visible;enable-background:accumulate"/>
    <path style="color:#000000;fill:none;stroke:#000000;stroke-width:0.9235636;stroke-linecap:round;stroke-linejoin:round;stroke-miterlimit:4;stroke-opacity:1;stroke-dasharray:none;stroke-dashoffset:0;marker:none;visibility:visible;display:inline;overflow:visible;enable-background:accumulate" d="m 736.70233,467.50518 106.08524,6.0311 c 35.03428,1.99175 87.03932,5.58391 116.50987,5.49924 21.70991,-0.0624 35.62255,-1.49596 56.46626,-5.04244" id="path4103"/>
    <path id="path4105" d="m 849.33355,484.98655 c 35.03428,1.40982 91.10115,5.00727 112.40273,4.96395 21.70991,-0.0442 39.48072,-2.76279 59.08002,-3.8753" style="color:#000000;fill:none;stroke:#000000;stroke-width:0.9235636;stroke-linecap:round;stroke-linejoin:round;stroke-miterlimit:4;stroke-opacity:1;stroke-dasharray:none;stroke-dashoffset:0;marker:none;visibility:visible;display:inline;overflow:visible;enable-background:accumulate"/>
    <path id="path4111" d="m 1102.0166,446.46032 c -3.7148,-1.06139 -6.1164,-59.62457 -2.7309,-60.88388" style="color:#000000;fill:none;stroke:#000000;stroke-width:0.9235636;stroke-linecap:round;stroke-linejoin:round;stroke-miterlimit:4;stroke-opacity:1;stroke-dasharray:none;stroke-dashoffset:0;marker:none;visibility:visible;display:inline;overflow:visible;enable-background:accumulate"/>
    <path style="color:#000000;fill:none;stroke:#000000;stroke-width:0.9235636;stroke-linecap:round;stroke-linejoin:round;stroke-miterlimit:4;stroke-opacity:1;stroke-dasharray:none;stroke-dashoffset:0;marker:none;visibility:visible;display:inline;overflow:visible;enable-background:accumulate" d="m 1049.6807,465.58416 c -5.7996,-1.65706 -9.549,-93.08633 -4.2635,-95.05237" id="path4115"/>
    <path id="path4119" d="m 1015.7637,473.99308 c -4.9889,-1.89727 -8.2142,-106.58 -3.6675,-108.83104" style="color:#000000;fill:none;stroke:#000000;stroke-width:2.77069068;stroke-linecap:round;stroke-linejoin:round;stroke-miterlimit:4;stroke-opacity:1;stroke-dasharray:none;stroke-dashoffset:0;marker:none;visibility:visible;display:inline;overflow:visible;enable-background:accumulate"/>
    <path style="color:#000000;fill:none;stroke:#000000;stroke-width:0.9235636;stroke-linecap:round;stroke-linejoin:round;stroke-miterlimit:4;stroke-opacity:1;stroke-dasharray:none;stroke-dashoffset:0;marker:none;visibility:visible;display:inline;overflow:visible;enable-background:accumulate" d="m -219.78852,500.87284 c -27.99842,0.70898 -56.29557,2.70721 -84.78419,6.27338 -41.09432,4.92182 -46.01371,14.19007 -46.01371,40.5731 0,26.38304 4.91939,35.65128 46.01371,40.5731 28.48862,3.56617 56.78577,5.5644 84.78419,6.27338 -12.99721,-10.67775 -20.86436,-24.51987 -20.86436,-46.84648 0,-22.32661 7.86715,-36.16873 20.86436,-46.84648 z" id="path4185"/>
    <path style="color:#000000;fill:none;stroke:#000000;stroke-width:0.9235636;stroke-linecap:round;stroke-linejoin:round;stroke-miterlimit:4;stroke-opacity:1;stroke-dasharray:none;stroke-dashoffset:0;marker:none;visibility:visible;display:inline;overflow:visible;enable-background:accumulate" d="M -38.288984,638.77411 92.934034,654.21875 171.94445,791.30303" id="path4197"/>
    <path id="path4199" style="color: rgb(0, 0, 0); stroke: rgb(0, 0, 0); stroke-width: 0.923564; stroke-linecap: round; stroke-linejoin: round; stroke-miterlimit: 4; stroke-opacity: 1; stroke-dasharray: none; stroke-dashoffset: 0; marker: none; visibility: visible; display: inline; overflow: visible; fill: none;" d="m 326.65573,834.81885 146.51309,0 11.65306,-15.94525 333.13877,0"/>
    <path style="color:#000000;fill:none;stroke:#000000;stroke-width:2.77069068;stroke-linecap:round;stroke-linejoin:round;stroke-miterlimit:4;stroke-opacity:1;stroke-dasharray:none;stroke-dashoffset:0;marker:none;visibility:visible;display:inline;overflow:visible;enable-background:accumulate" d="m 744.48242,777.45736 163.89725,77.27667 58.08377,0 52.52796,-72.73099 -103.79319,-9.09137 -59.06475,-0.56372 c -16.82351,-0.16057 -101.83382,0.0771 -111.65104,5.10941 z" id="path4201"/>
    <path style="color:#000000;fill:none;stroke:#000000;stroke-width:2.77069068;stroke-linecap:round;stroke-linejoin:round;stroke-miterlimit:4;stroke-opacity:1;stroke-dasharray:none;stroke-dashoffset:0;marker:none;visibility:visible;display:inline;overflow:visible;enable-background:accumulate" d="m 1012.8193,790.54907 142.2837,-14.406" id="path4203"/>
    <path id="path4205" d="M 956.22083,776.50489 1155.103,776.14307" style="color:#000000;fill:none;stroke:#000000;stroke-width:0.9235636;stroke-linecap:round;stroke-linejoin:round;stroke-miterlimit:4;stroke-opacity:1;stroke-dasharray:none;stroke-dashoffset:0;marker:none;visibility:visible;display:inline;overflow:visible;enable-background:accumulate"/>
    <path style="color:#000000;fill:none;stroke:#000000;stroke-width:2.77069068;stroke-linecap:round;stroke-linejoin:round;stroke-miterlimit:4;stroke-opacity:1;stroke-dasharray:none;stroke-dashoffset:0;marker:none;visibility:visible;display:inline;overflow:visible;enable-background:accumulate" d="M 1155.103,776.14307 973.72083,752.57632 c -54.96527,-7.14157 -198.21734,-8.46915 -291.93511,1.92871 l -12.14286,17.14286 c 40.6784,16.9136 73.50244,24.66095 128.68962,31.19948" id="path4207"/>
    <path style="color:#000000;fill:none;stroke:#000000;stroke-width:0.9235636;stroke-linecap:round;stroke-linejoin:round;stroke-miterlimit:4;stroke-opacity:1;stroke-dasharray:none;stroke-dashoffset:0;marker:none;visibility:visible;display:inline;overflow:visible;enable-background:accumulate" d="m 669.64286,771.64789 36.78571,5.35714 26.42857,-3.21429 4.28572,-9.28571 -55.35714,-10 z" id="path4209"/>
    <path style="color:#000000;fill:none;stroke:#000000;stroke-width:0.9235636;stroke-linecap:round;stroke-linejoin:round;stroke-miterlimit:4;stroke-opacity:1;stroke-dasharray:none;stroke-dashoffset:0;marker:none;visibility:visible;display:inline;overflow:visible;enable-background:accumulate" d="M 737.14286,764.50503 755,758.79074 l 28.21429,-3.92857" id="path4211"/>
    <path style="color:#000000;fill:none;stroke:#000000;stroke-width:0.9235636;stroke-linecap:round;stroke-linejoin:round;stroke-miterlimit:4;stroke-opacity:1;stroke-dasharray:none;stroke-dashoffset:0;marker:none;visibility:visible;display:inline;overflow:visible;enable-background:accumulate" d="m 660.29216,1127.7437 57.65427,0 -333.6364,-292.92485" id="path4213"/>
    <path style="color:#000000;fill:none;stroke:#000000;stroke-width:0.9235636;stroke-linecap:round;stroke-linejoin:round;stroke-miterlimit:4;stroke-opacity:1;stroke-dasharray:none;stroke-dashoffset:0;marker:none;visibility:visible;display:inline;overflow:visible;enable-background:accumulate" d="m 885.07155,1001.1707 -81.93951,0" id="path4215"/>
    <path style="color:#000000;fill:none;stroke:#000000;stroke-width:0.9235636;stroke-linecap:round;stroke-linejoin:round;stroke-miterlimit:4;stroke-opacity:1;stroke-dasharray:none;stroke-dashoffset:0;marker:none;visibility:visible;display:inline;overflow:visible;enable-background:accumulate" d="m 861.99209,1129.7956 -36.99209,0 -21.86796,-128.6249 30.27637,-168.73429" id="path4217"/>
    <path style="color:#000000;fill:none;stroke:#000000;stroke-width:0.9235636;stroke-linecap:round;stroke-linejoin:round;stroke-miterlimit:4;stroke-opacity:1;stroke-dasharray:none;stroke-dashoffset:0;marker:none;visibility:visible;display:inline;overflow:visible;enable-background:accumulate" d="m 733.84519,713.1341 109.65667,10.84119 c 39.65689,3.92068 89.58081,7.50036 130.21897,8.72937 l 0,19.87166" id="path4219"/>
    <path id="path4221" d="m 736.70233,627.93346 106.08524,-6.0311 c 35.03428,-1.99175 87.03932,-5.58391 116.50987,-5.49924 21.70991,0.0624 35.62255,1.49596 56.46626,5.04244" style="color:#000000;fill:none;stroke:#000000;stroke-width:0.9235636;stroke-linecap:round;stroke-linejoin:round;stroke-miterlimit:4;stroke-opacity:1;stroke-dasharray:none;stroke-dashoffset:0;marker:none;visibility:visible;display:inline;overflow:visible;enable-background:accumulate"/>
    <path style="color:#000000;fill:none;stroke:#000000;stroke-width:0.9235636;stroke-linecap:round;stroke-linejoin:round;stroke-miterlimit:4;stroke-opacity:1;stroke-dasharray:none;stroke-dashoffset:0;marker:none;visibility:visible;display:inline;overflow:visible;enable-background:accumulate" d="m 849.33355,610.45209 c 35.03428,-1.40982 91.10115,-5.00727 112.40273,-4.96395 21.70991,0.0442 39.48072,2.76279 59.08002,3.8753" id="path4223"/>
    <path style="color:#000000;fill:none;stroke:#000000;stroke-width:0.9235636;stroke-linecap:round;stroke-linejoin:round;stroke-miterlimit:4;stroke-opacity:1;stroke-dasharray:none;stroke-dashoffset:0;marker:none;visibility:visible;display:inline;overflow:visible;enable-background:accumulate" d="m 1102.0166,648.97832 c -3.7148,1.06139 -6.1164,59.62457 -2.7309,60.88388" id="path4225"/>
    <path id="path4227" d="m 1049.6807,629.85448 c -5.7996,1.65706 -9.549,93.08633 -4.2635,95.05237" style="color:#000000;fill:none;stroke:#000000;stroke-width:0.9235636;stroke-linecap:round;stroke-linejoin:round;stroke-miterlimit:4;stroke-opacity:1;stroke-dasharray:none;stroke-dashoffset:0;marker:none;visibility:visible;display:inline;overflow:visible;enable-background:accumulate"/>
    <path style="color:#000000;fill:none;stroke:#000000;stroke-width:2.77069068;stroke-linecap:round;stroke-linejoin:round;stroke-miterlimit:4;stroke-opacity:1;stroke-dasharray:none;stroke-dashoffset:0;marker:none;visibility:visible;display:inline;overflow:visible;enable-background:accumulate" d="m 1015.7637,621.44556 c -4.9889,1.89727 -8.2142,106.58 -3.6675,108.83104" id="path4229"/>
    <path d="m -311.25288,503.69751 c 36.29121,-4.705 72.28003,-6.84527 107.75641,-6.98598 19.84828,-0.0787 39.53616,0.46845 59.02685,1.54255 45.485621,2.5512 82.952363,6.65816 82.952363,49.46524 0,42.80708 -37.466742,46.91404 -82.952363,49.46524 -19.49069,1.0741 -39.17857,1.62125 -59.02685,1.54255 -35.47638,-0.14071 -71.4652,-2.28098 -107.75641,-6.98598 -42.22376,-5.23755 -46.99312,-12.97436 -46.99312,-44.02181 0,-31.04745 4.76936,-38.78426 46.99312,-44.02181 z" style="color: rgb(0, 0, 0); stroke-width: 2.77069; stroke-linecap: round; stroke-linejoin: round; stroke-miterlimit: 4; stroke-opacity: 1; stroke-dasharray: none; stroke-dashoffset: 0; marker: none; visibility: visible; display: inline; overflow: visible; stroke: rgb(28, 25, 20); fill: rgb(172, 205, 207);" id="path4231"/>
    <path d="m -141.91388,501.4985 c -21.17223,-1.16676 -42.55866,-1.76113 -64.11933,-1.67563 -15.46618,10.93699 -24.89736,23.39249 -24.89736,47.89645 0,24.50396 9.43118,36.95946 24.89736,47.89645 21.56067,0.0855 42.9471,-0.50887 64.11933,-1.67563 12.71837,-14.09433 15.35911,-25.26992 15.35911,-46.22082 0,-20.9509 -2.64074,-32.12649 -15.35911,-46.22082 z" style="color:#000000;fill:none;stroke:#000000;stroke-width:0.9235636;stroke-linecap:round;stroke-linejoin:round;stroke-miterlimit:4;stroke-opacity:1;stroke-dasharray:none;stroke-dashoffset:0;marker:none;visibility:visible;display:inline;overflow:visible;enable-background:accumulate" id="path4233"/>
    <path d="m 1094.2739,527.0211 -77.4059,0 0,20.69822 0,20.69822 77.4059,0 4.3995,-20.69822 z" style="color:#000000;fill:none;stroke:#000000;stroke-width:0.9235636;stroke-linecap:round;stroke-linejoin:round;stroke-miterlimit:4;stroke-opacity:1;stroke-dasharray:none;stroke-dashoffset:0;marker:none;visibility:visible;display:inline;overflow:visible;enable-background:accumulate" id="path4237"/>
    <path d="m -356.60901,536.76736 c -2.40234,6.17398 -3.47129,8.22966 -11.64229,8.22966 -3.31461,0 -5.807,-1.68443 -7.59661,-2.97077 -3.29711,-2.36989 -3.99241,-3.70711 -3.99241,-8.12891 0,-5.9575 3.7067,-10.78701 10.78701,-10.78701 2.70659,0 7.75977,1.4598 10.66892,2.60456 2.6149,1.02897 3.45505,1.96456 3.45505,4.3795 0,2.18294 -0.96436,4.83464 -1.67967,6.67297 z" style="color: rgb(0, 0, 0); stroke: rgb(0, 0, 0); stroke-width: 0.520293; stroke-linecap: round; stroke-linejoin: round; stroke-miterlimit: 4; stroke-opacity: 1; stroke-dasharray: none; stroke-dashoffset: 0; marker: none; visibility: visible; display: inline; overflow: visible; fill: rgb(50, 43, 43);" transform="matrix(2.861702,0,0,1.1010638,688.67387,-55.047884)" id="path4268"/>
    <path transform="translate(1.6065754,0)" d="m -369.05331,544.68435 c -5.9575,0 -10.78701,-4.82951 -10.78701,-10.78701 0,-5.9575 4.82951,-10.78701 10.78701,-10.78701 0,0 0,0 0,0" id="path4241" style="color:#000000;fill:none;stroke:#000000;stroke-width:0.9235636;stroke-linecap:round;stroke-linejoin:round;stroke-miterlimit:4;stroke-opacity:1;stroke-dasharray:none;stroke-dashoffset:0;marker:none;visibility:visible;display:inline;overflow:visible;enable-background:accumulate"/>
    <path style="color:#000000;fill:none;stroke:#000000;stroke-width:2.23857045;stroke-linecap:round;stroke-linejoin:round;stroke-miterlimit:4;stroke-opacity:1;stroke-dasharray:none;stroke-dashoffset:0;marker:none;visibility:visible;display:inline;overflow:visible;enable-background:accumulate" id="path4243" d="m -369.05331,544.68435 c -5.9575,0 -10.78701,-4.82951 -10.78701,-10.78701 0,-5.9575 4.82951,-10.78701 10.78701,-10.78701 0,0 0,0 0,0" transform="matrix(-0.1702127,0,0,1,-430.2643,0)"/>
  </g>
  <g transform="matrix(0.05935100466012955, 0, 0, 0.05935100466012955, 0.5058050155639648, 23.244667053222653)">
    <defs/>
    <g transform="matrix(0.204779, 0, 0, 0.204779, -14.693544, 48.684044)" fill-rule="evenodd">
      <path d="M 425.49 612.857 L 353.648 553.866 L 275.563 604.305 L 309.466 517.749 L 237.366 459.073 L 330.163 464.57 L 363.687 377.867 L 387.135 467.821 L 479.954 472.912 L 401.649 523.009 L 425.49 612.858 L 425.49 612.857 Z" style="fill: none; stroke-width: 7.98285px; transform-box: fill-box; transform-origin: 50% 50%; stroke: rgb(189, 56, 64);" transform="matrix(0.998747, -0.050044, 0.050044, 0.998747, 0.000001, 0)"/>
      <path d="M 2474.999 614.232 L 2403.157 555.241 L 2325.072 605.68 L 2358.975 519.124 L 2286.875 460.448 L 2379.672 465.945 L 2413.196 379.242 L 2436.644 469.196 L 2529.463 474.287 L 2451.158 524.384 L 2474.999 614.233 L 2474.999 614.232 Z" style="fill: none; stroke-width: 7.98285px; stroke: rgb(189, 56, 64); transform-origin: 2408.17px 496.737px;" transform="matrix(0.998747, -0.050044, 0.050044, 0.998747, 0.000001, 0.000004)"/>
    </g>
  </g>
</svg>