<?xml version="1.0" encoding="utf-8"?>
<svg viewBox="0 0 60 30" xmlns="http://www.w3.org/2000/svg">
  <defs>
    <linearGradient id="a" x1="131.99" x2="128.68" y1="-299.76" y2="296.3" gradientUnits="userSpaceOnUse" gradientTransform="matrix(0.72859, 0, 0, 0.84356, 367.899994, 255.296753)">
      <stop stop-color="#fff" offset="0"/>
      <stop stop-color="#fff" stop-opacity="0" offset="1"/>
    </linearGradient>
    <filter id="b">
      <feGaussianBlur stdDeviation="15.76057"/>
    </filter>
    <filter id="g" x="-.05498" y="-.232" width="1.11" height="1.464">
      <feGaussianBlur stdDeviation="22.58218"/>
    </filter>
    <filter id="f" x="-.05154" y="-.2175" width="1.1031" height="1.435">
      <feGaussianBlur stdDeviation="21.1708"/>
    </filter>
    <filter id="c" x="-.04678" y="-.23053" width="1.0936" height="1.461">
      <feGaussianBlur stdDeviation="11.93863"/>
    </filter>
    <filter id="d" x="-.03295" y="-.17703" width="1.0659" height="1.3541">
      <feGaussianBlur stdDeviation="8.28288"/>
    </filter>
    <filter id="e" x="-.05917" y="-.32272" width="1.1183" height="1.6454">
      <feGaussianBlur stdDeviation="15.09967"/>
    </filter>
  </defs>
  <g transform="matrix(0.06475099921226501, 0, 0, 0.091544009745121, -2.5047988891601562, -4.860947132110596)" style="">
    <defs/>
    <path d="M 459.6 59.388 C 432.817 69.097 418.328 118.218 385.889 96.533 C 345.157 99.966 298.174 95.479 262.903 121.447 C 236.798 134.802 297.746 122.691 264.288 135.059 C 237.928 144.897 201.316 158.101 184.544 127.043 C 160.186 119.435 96.895 146.198 124.139 175.453 C 138.983 184.9 90.011 188.355 80.523 193.61 C 60.257 195.086 29.806 206.343 36.403 212.858 C 62.4 221.489 96.338 240.85 124.031 257.549 C 159.986 279.623 199.557 256.378 237.334 265.984 C 264.727 267.398 288.243 288.442 314.841 289.547 C 342.554 293.687 393.485 320.219 407.205 317.761 C 364.503 328.18 432.128 337 445.526 336.987 C 460.979 337.664 463.283 335.205 452.541 346.813 C 480.91 354.055 511.377 350.555 540.475 349.268 C 578.206 340.591 618.74 340.507 654.208 323.054 C 667.575 284.385 727.118 285.595 761.966 270.117 C 802.741 260.727 842.774 233.384 884.843 252.905 C 892.168 244.233 938.959 260.735 964.514 246.176 C 931.355 232.257 894.149 231.381 867.342 202.51 C 830.629 207.151 823.988 161.82 789.951 164.826 C 760.088 144.707 728.169 172.758 700.976 162.61 C 706.723 145.955 743.932 154.808 735.662 154.972 C 754.368 159.559 796.535 149.324 753.994 145.297 C 734.389 142.586 679.787 153.077 714.488 134 C 676.294 134.452 643.365 102.336 604.909 101.197 C 621.718 48.533 545.254 72.545 519.991 75.502 C 474.285 75.813 555.459 94.242 519.905 101.664 C 485.425 112.05 482.62 72.795 459.593 59.389 L 459.6 59.388 Z M 732.8 154.635 L 731.895 154.69 L 732.8 154.635 Z M 731.889 154.687 C 726.259 150.925 723.491 159.131 731.889 154.687 Z M 727.973 154.002 C 724.522 153.292 725.802 153.555 727.973 154.002 Z M 411.561 317.653 C 416.576 315.843 404.149 317.456 411.561 317.653 Z M 527.385 82.746 C 514.846 83.87 506.277 82.693 527.385 82.746 Z M 575.016 87.992 C 562.639 96.434 557.873 83.439 575.016 87.992 Z M 455.615 97.035 C 456.946 98.399 453.554 97.277 455.615 97.035 Z M 482.3 102.913 C 479.602 106.518 468.623 101.761 482.3 102.913 Z M 377.266 106.129 C 363.439 110.484 364.822 105.062 377.266 106.129 Z M 567.02 106.815 C 583.099 104.574 626.57 125.113 609.016 125.755 C 615.609 100.823 536.224 115.513 567.02 106.815 Z M 467.291 107.078 C 464.496 112.659 455.281 101.345 467.291 107.078 Z M 524.736 123.237 C 546.916 125.112 509.298 127.804 524.736 123.237 Z M 520.888 139.581 C 574.352 147.606 491.936 144.336 520.888 139.581 Z M 707.064 145.776 C 722.948 145.723 736.068 146.911 711.954 145.989 L 707.064 145.776 Z M 514.513 147.332 C 524.574 147.446 516.715 147.357 514.513 147.332 Z M 665.972 151.84 C 679.992 155.868 641.147 153.769 665.972 151.84 Z M 743.61 167.736 C 756.707 166.149 810.027 187.412 771.241 180.572 C 761.473 179.11 749.988 177.822 743.61 167.736 Z M 100.061 221.407 C 99.808 225.112 93.526 216.845 100.061 221.407 Z M 97.306 222.91 C 101.743 221.519 109.045 229.399 97.306 222.91 Z M 873.619 235.405 C 884.6 240.823 931.88 240.584 898.378 240.643 C 912.833 238.239 933.685 247.811 907.102 245.134 C 896.533 241.138 879.83 249.557 873.619 235.405 L 873.619 235.405 Z M 195.965 244.789 C 195.948 246.639 193.104 242.574 195.965 244.789 Z M 200.109 253.198 C 196.764 254.065 198.391 253.643 200.109 253.198 Z M 158.875 254.622 C 173.388 257.221 231.72 253.074 187.967 259.193 C 178.208 260.551 167.584 260.712 158.875 254.622 Z M 234.197 255.175 C 239.213 252.95 236.936 264.139 234.197 255.175 Z M 792.092 259.13 L 791.478 259.42 L 792.092 259.13 Z M 405.167 293.242 C 419.817 290.769 465.458 307.437 424.989 305.476 C 414.322 312.584 378.427 312.788 405.167 293.242 Z" fill="url(#a)" filter="url(#b)" style=""/>
    <path d="M 192.508 151.864 C 174.01 157.306 155.465 161.755 136.867 165.099 C 166.615 173.471 193.071 188.348 224.738 185.121 C 248.735 185.454 270.265 173.185 283.715 190.259 C 304.727 198.946 326.339 216.824 353.136 207.463 C 377.556 197.775 397.891 201.958 422.687 207.313 C 441.866 215.478 463.159 226.821 486.098 220.64 C 514.239 216.634 530.783 238.879 554.276 251.162 C 572.447 259.459 603.26 260.321 614.531 269.895 C 613.893 301.644 655.265 298.323 675.908 292.284 C 690.786 287.942 712.93 278.14 707.805 258.17 C 735.536 264.872 750.7 233.831 776.503 231.345 C 794.025 213.835 817.44 212.434 839.187 203.18 C 862.335 184.437 811.828 183.878 799.579 184.371 C 776.954 188.794 755.453 180.876 732.749 182.868 C 720.693 183.433 706.657 187.947 724.688 178.093 C 720.8 154.462 676.262 163.853 656.146 163.189 C 629.61 160.446 602.568 185.812 578.71 171.354 C 545.881 155.385 504.808 135.783 470.609 159.437 C 462.828 149.924 432.541 138.794 435.218 131.898 C 415.418 128.934 374.464 114.067 356.562 142.336 C 335.168 157.456 382.003 183.118 355.187 179.674 C 336.933 171.15 315.831 165.54 294.935 168.669 C 274.908 167.685 297.797 172.31 297.97 159.479 C 269.254 162.376 241.117 160.525 214.306 152.857 C 207.238 151.818 199.942 151.346 192.51 151.864 L 192.508 151.864 Z M 294.673 167.202 C 303.167 169.68 310.247 163.185 294.673 167.202 Z M 641.342 179.066 C 635.591 182.379 620.909 180.982 641.342 179.066 Z M 528.669 190.235 C 555.902 193.747 522.61 193.524 528.669 190.235 Z M 726.785 191.491 C 718.955 195.365 703.408 201.756 720.315 193.676 L 723.312 192.618 L 726.785 191.491 L 726.785 191.491 Z M 537.095 197.187 C 545.669 195.862 564.462 199.575 544.246 199.656 L 539.499 199.505 L 537.095 197.187 L 537.095 197.187 Z M 712.526 201.18 C 714.322 200.748 712.844 201.719 712.526 201.18 Z M 670.072 213.382 C 665.284 226.38 637.311 214.73 660.302 214.538 L 664.751 213.978 L 670.072 213.382 L 670.072 213.382 Z" filter="url(#g)" opacity=".74444" style="fill: rgb(185, 185, 185);"/>
    <path transform="matrix(.72859 0 0 .68333 358.18 -13.207)" d="m-241 268.12c-21.552 4.5642-43.104 8.4992-64.656 11.868 34.509 10.45 65.365 29.76 102.35 29.91 28.089 3.1081 53.25-9.1333 69.026 11.041 24.546 10.011 49.722 29.005 80.776 16.909 28.258-12.729 51.789-10.515 80.481-4.5217 22.193 9.1376 46.833 21.833 73.376 14.915 32.564-4.4837 51.708 20.413 78.893 34.159 21.027 9.2863 56.682 10.251 69.724 20.966-0.73839 35.533 47.136 31.816 71.023 25.057 17.216-4.8596 42.84-15.83 36.909-38.179 32.09 7.5004 49.636-27.24 79.495-30.022 20.275-19.597 47.37-21.165 72.535-31.522 26.785-20.977-31.659-21.602-45.833-21.051-26.181 4.951-51.061-3.9116-77.332-1.6822-13.951 0.63277-30.193 5.6845-9.3278-5.3437-4.499-26.447-56.037-15.937-79.314-16.68-30.706-3.0698-61.998 25.319-89.605 9.1382-37.989-17.872-85.516-39.81-125.09-13.338-9.0037-10.646-44.05-23.103-40.953-30.821-22.911-3.317-70.301-18.815-91.021 14.941-24.819 18.84 29.444 44.526-1.588 42.83-21.172-8.3528-45.724-13.857-70.094-10.129-23.41-1.8677 3.349 4.2304 3.5312-10.618-33.565 2.2364-66.502-2.4319-97.866-14.344-8.2566-1.9898-16.775-3.3191-25.446-3.4838zm119.47 26.745c9.9199 2.9226 18.168-4.639 0 0zm401.53 6.8477c-6.6557 3.7079-23.645 2.1447 0 0zm-130.38 12.5c31.512 3.9307-7.012 3.6811 0 0zm229.25 1.4062c-9.0599 4.3359-27.051 11.488-7.4865 2.4448l3.468-1.1837 4.0185-1.261zm-219.5 6.375c9.9212-1.4833 31.668 2.6724 8.2751 2.7635l-5.4939-0.16979-2.7812-2.5938zm203 4.4688c2.0786-0.48411 0.36832 0.60294 0 0zm-49.125 13.656c-5.5404 14.547-37.91 1.5085-11.306 1.2937l5.1485-0.62621 6.1574-0.66752z" filter="url(#f)" opacity=".74444" style="fill: rgb(255, 255, 255);"/>
    <g transform="matrix(.72859 0 0 .72859 346.04 -26.414)" filter="url(#c)" opacity=".75">
      <path d="m-40.535 245.87c32.649 13.047 132.05 19.101 1.7891 7.5759 30.726-9.9705 119.98-56.146 120.99-8.1535-17.889 10.982 12.426 10.891 10.835 10.754-87.384-7.5183-68.799 0.02661-36.265-11.579 45.943-15.142 102.41-31.659 107.98 26.033 5.3399-0.6396 21.373-1.3986 16.02-1.9188-20.513-1.9936-41.29-0.29012-61.778-2.5282-11.404-1.2458 22.792-3.3695 34.263-3.244 89.246 0.97667 63.506-2.3166 106.47 4.1553 6.0896-0.2204 24.357-0.40157 18.269-0.66121-21.671-0.9242-43.39-0.36186-65.059-1.3342-5.323-0.23887 10.633-0.87691 15.961-0.86896 30.731 0.04581 61.491 2.4726 92.189 1.0302 26.628-1.2512-54.159 1.3836-79.736-6.1264-33.392-11.064-173.96-29.539 3.3167-17.738 21.062 1.402 60.617 30.781 79.79 42.311 52.904 39.522-172.69 14.65-71.544-13.495 41.223 0.61925 82.463 0.49198 123.67 1.8578 61.581 2.0412-34.111 32.001-89.453 13.946-7.6108-5.2305-108.74-22.281-106.82-31.919 1.274-6.4002 10.857-7.2441 16.285-10.866 54.067 0.54388 119.11 1.0439 169.61 27.67-3.9611 15.207-1.0822 8.1402-8.4043 21.293l-67.916-4.8821c8.0734-4.1751 7.4036-1.9002-1.9486-6.8423-30.389-7.9302-151.98-32.979-24.822-27.374 1.5109-20.361 85.341 11.192 101.73 23.16 32.303 11.09-3.7058-2.6316-46.943 4.7866-3.387 0.5811 4.6945 5.0198 7.0418 7.5297l-22.249 0.78488c-9.0503-0.25216-36.068-1.1048-27.075-2.1592 22.794-2.6729 45.864-1.822 68.795-2.733-10.309-0.86567-20.731-0.84911-30.928-2.597-1.4038-0.24063-3.9799-4.0468-2.841-3.1915 46.315 34.782-88.894 34.515-101.59 16.424-128.53-94.743 55.231-104.49 108.43-41.63 13.137 46.473 1.1745-14.97-74.057 23.558-18.935 9.6972 42.542-0.87528 63.816-0.86935 4.4194 0.00123-8.8111 0.76166-13.229 0.88345-96.309 2.6551-65.674 4.343-111.41 1.1732-35.167-4.5242-19.603-1.8422 51.012-2.8753 10.408-0.15226-20.667 2.7481-31.069 3.1291-95.683 3.5051-68.066 15.042-105.81-2.9912-36.207-46.149 109.43-34.717 36.6-21.408-35.606 12.84-126.63 48.601-118.16 2.4749 92.985-4.1002 69.69-8.5189 20.322 14.206-50.036 2.5728-98.174 11.541-141.77-15.835l65.684-8.9173z" filter="url(#d)" opacity=".41111" style="fill: rgb(163, 163, 163);"/>
      <path d="m-47.944 236.51c32.931 13.879 132.13 19.329 3.4512 12.006 31.259-8.8251 121.74-53.042 123.67-4.4071-17.525 10.963 12.981 10.81 11.418 10.627-86.204-10.089-68-1.2242-35.06-14.284 46.416-17.35 103.69-37.641 109.26 20.051 5.3399-0.6396 21.373-1.3986 16.02-1.9188-20.513-1.9936-41.299-0.25427-61.778-2.5282-11.402-1.2661 22.792-3.3695 34.263-3.244 89.246 0.97667 63.506-2.3166 106.47 4.1553 6.0896-0.2204 24.357-0.40157 18.269-0.66121-21.671-0.9242-43.39-0.36186-65.059-1.3342-5.323-0.23887 10.633-0.87691 15.961-0.86896 30.731 0.04581 61.491 2.4726 92.189 1.0302 26.628-1.2512-54.159 1.3836-79.736-6.1264-33.392-11.064-173.96-29.539 3.3167-17.738 21.062 1.402 60.617 30.781 79.79 42.311 52.904 39.522-172.69 14.65-71.544-13.495 41.223 0.61925 82.463 0.49198 123.67 1.8578 61.581 2.0412-34.111 32.001-89.453 13.946-7.6108-5.2305-108.74-22.281-106.82-31.919 1.274-6.4002 10.857-7.2441 16.285-10.866 54.067 0.54388 119.11 1.0439 169.61 27.67-3.9611 15.207-1.0822 8.1402-8.4043 21.293l-67.916-4.8821c8.0734-4.1751 7.4036-1.9002-1.9486-6.8423-30.389-7.9302-151.98-32.979-24.822-27.374 1.5109-20.361 85.341 11.192 101.73 23.16 32.303 11.09-3.7058-2.6316-46.943 4.7866-3.387 0.5811 4.6945 5.0198 7.0418 7.5297l-22.249 0.78488c-9.0503-0.25216-36.068-1.1048-27.075-2.1592 22.794-2.6729 45.864-1.822 68.795-2.733-10.309-0.86567-20.731-0.84911-30.928-2.597-1.4038-0.24063-3.9799-4.0468-2.841-3.1915 46.315 34.782-88.894 34.515-101.59 16.424-128.53-94.743 55.231-104.49 108.43-41.63 13.137 46.473 1.1745-14.97-74.057 23.558-18.935 9.6972 42.542-0.87528 63.816-0.86935 4.4194 0.00123-8.8111 0.76166-13.229 0.88345-96.309 2.6551-65.674 4.343-111.41 1.1732-35.167-4.5242-19.603-1.8422 51.012-2.8753 10.408-0.15226-20.667 2.7481-31.069 3.1291-95.683 3.5051-68.066 15.042-105.81-2.9912-36.42-46.149 109.43-34.717 36.6-21.408-35.606 12.84-130.11 48.601-122.73 2.4749 91.209-4.1002 68.828-8.5189 18.509 14.206-50.723 2.5728-99.418 11.541-143.01-15.835l65.894-8.279z" filter="url(#e)" style="fill: rgb(163, 163, 163);"/>
    </g>
  </g>
</svg>