<svg viewBox="0 0 60 30" xmlns="http://www.w3.org/2000/svg">
  <defs>
    <filter id="h" x="-.04238" y="-.15618" width="1.0848" height="1.3124">
      <feGaussianBlur stdDeviation="27.01813"></feGaussianBlur>
    </filter>
    <linearGradient id="a" x1="131.99" x2="128.68" y1="-299.76" y2="296.3" gradientUnits="userSpaceOnUse" gradientTransform="matrix(0.707532, 0, 0, 0.752621, 376.722961, 283.182554)">
      <stop stop-color="#fff" offset="0"></stop>
      <stop stop-color="#fff" stop-opacity="0" offset="1"></stop>
    </linearGradient>
    <filter id="b">
      <feGaussianBlur stdDeviation="15.76057"></feGaussianBlur>
    </filter>
    <filter id="g" x="-.05498" y="-.232" width="1.11" height="1.464">
      <feGaussianBlur stdDeviation="22.58218"></feGaussianBlur>
    </filter>
    <filter id="f" x="-.05154" y="-.2175" width="1.1031" height="1.435">
      <feGaussianBlur stdDeviation="21.1708"></feGaussianBlur>
    </filter>
    <filter id="c" x="-.04678" y="-.23053" width="1.0936" height="1.461">
      <feGaussianBlur stdDeviation="11.93863"></feGaussianBlur>
    </filter>
    <filter id="d" x="-.03295" y="-.17703" width="1.0659" height="1.3541">
      <feGaussianBlur stdDeviation="8.28288"></feGaussianBlur>
    </filter>
    <filter id="e" x="-.05917" y="-.32272" width="1.1183" height="1.6454">
      <feGaussianBlur stdDeviation="15.09967"></feGaussianBlur>
    </filter>
  </defs>
  <g transform="matrix(0.06475099921226501, 0, 0, 0.091544009745121, -2.5047988891601562, -4.860947132110596)" style="">
    <defs></defs>
    <path d="M 483.104 86.818 C 457.096 95.225 443.025 137.766 411.524 118.986 C 371.97 121.958 326.344 118.073 292.092 140.561 C 266.742 152.127 325.928 141.64 293.438 152.351 C 267.84 160.869 232.285 172.305 215.998 145.409 C 192.344 138.819 136.571 156.914 161.774 182.766 C 174.443 191.611 136.736 188.724 130.076 191.752 C 114.003 191.191 85.78 214.376 94.335 213.996 C 117.354 221.19 142.785 229.051 162.335 246.236 C 192.683 272.767 230.577 257.415 267.27 265.735 C 293.87 266.958 316.707 285.183 342.537 286.139 C 369.448 289.725 418.908 312.701 432.231 310.575 C 390.762 319.597 456.434 327.236 469.443 327.223 C 484.45 327.811 486.688 325.681 476.257 335.733 C 503.806 342.005 533.392 338.975 561.649 337.86 C 598.29 330.346 612.891 330.273 647.335 315.157 C 660.316 281.67 685.5 255.652 719.342 242.247 C 758.938 234.115 844.585 230.188 872.079 237.898 C 876.865 228.786 911.925 235.933 934.586 221.843 C 905.656 212.038 878.53 217.479 862.92 199.649 C 837.005 210.371 834.598 173.896 803.915 178.129 C 774.915 160.706 743.918 184.998 717.51 176.21 C 723.092 161.785 759.225 169.454 751.194 169.596 C 769.36 173.568 810.308 164.704 768.996 161.218 C 749.958 158.869 696.935 167.954 730.632 151.433 C 693.542 151.825 661.565 124.012 624.22 123.024 C 640.543 77.417 566.29 98.212 541.757 100.772 C 497.373 101.044 576.2 117.001 541.673 123.43 C 508.19 132.424 505.467 98.428 483.105 86.819 L 483.104 86.818 Z M 748.407 169.303 L 747.53 169.352 L 748.407 169.303 Z M 747.523 169.348 C 742.056 166.091 739.368 173.196 747.523 169.348 Z M 743.721 168.755 C 740.369 168.14 741.613 168.368 743.721 168.755 Z M 436.454 310.48 C 441.324 308.913 429.256 310.31 436.454 310.48 Z M 548.93 107.046 C 536.754 108.019 528.432 107 548.93 107.046 Z M 595.185 111.59 C 583.165 118.9 578.538 107.646 595.185 111.59 Z M 479.234 119.419 C 480.527 120.601 477.234 119.629 479.234 119.419 Z M 505.148 124.511 C 502.528 127.634 491.867 123.514 505.148 124.511 Z M 403.151 127.296 C 389.722 131.068 391.065 126.373 403.151 127.296 Z M 587.419 127.891 C 603.034 125.95 645.248 143.737 628.202 144.294 C 634.604 122.701 557.513 135.423 587.419 127.891 Z M 490.573 128.119 C 487.859 132.951 478.91 123.153 490.573 128.119 Z M 571.648 137.592 C 592.473 136.322 594.807 145.216 573.22 142.606 C 569.057 145.279 559.518 140.71 571.648 137.592 Z M 546.354 142.113 C 567.894 143.736 531.364 146.068 546.354 142.113 Z M 565.302 145.514 C 599.269 139.861 592.074 171.691 564.335 158.721 C 560.078 155.311 561.902 148.761 565.302 145.514 Z M 542.617 156.268 C 594.537 163.216 514.503 160.384 542.617 156.268 Z M 723.414 161.632 C 738.838 161.586 751.579 162.615 728.162 161.817 L 723.414 161.632 Z M 536.427 162.979 C 546.198 163.079 538.565 163.001 536.427 162.979 Z M 683.509 166.883 C 697.124 170.372 659.4 168.555 683.509 166.883 Z M 758.903 180.649 C 771.622 179.274 823.401 197.689 785.736 191.765 C 776.249 190.5 765.097 189.385 758.903 180.649 Z M 145.975 214.093 C 145.788 216.867 141.195 210.155 145.975 214.093 Z M 143.992 214.996 C 147.188 214.324 152.398 220.979 143.992 214.996 Z M 761.285 280.999 C 768.318 283.195 905.732 218.976 881.061 224.439 C 891.268 219.721 907.134 224.993 887.06 226.628 C 879.799 225.234 765.177 291.784 761.285 280.999 Z M 227.078 246.835 C 227.059 248.429 224.326 244.67 227.078 246.835 Z M 231.083 254.392 C 227.842 254.922 229.417 254.672 231.083 254.392 Z M 191.935 249.429 C 205.505 254.466 261.78 254.555 219.36 258.497 C 210.045 258.261 200.013 256.51 191.935 249.429 Z M 264.18 256.376 C 269.052 254.448 266.841 264.137 264.18 256.376 Z M 760.297 317.472 L 820.525 305.022 L 760.297 317.472 Z M 430.21 289.341 C 444.437 287.2 488.757 301.635 449.459 299.937 C 439.1 306.092 404.243 306.268 430.21 289.341 Z" filter="url(#h)" style="fill: rgba(0, 0, 0, 0.918); transform-box: fill-box; transform-origin: 50% 50%;" transform="matrix(-1, 0, 0, -1, 0.000015, 0.000008)"></path>
    <path d="M 445.295 121.912 C 419.286 130.574 425.693 160.883 394.19 141.534 C 354.636 144.597 309.011 140.595 274.76 163.762 C 249.408 175.677 308.595 164.873 276.105 175.908 C 250.507 184.685 214.953 196.466 198.666 168.755 C 175.012 161.967 113.55 185.846 140.006 211.947 C 154.421 220.376 106.865 223.458 97.651 228.146 C 77.972 229.464 48.4 239.507 54.806 245.319 C 80.052 253.019 113.009 270.293 139.901 285.193 C 174.818 304.886 213.244 284.147 249.929 292.718 C 276.531 293.98 227.699 364.414 325.197 313.741 C 352.109 317.434 401.568 341.105 414.89 338.913 C 373.423 348.209 439.093 356.078 452.104 356.066 C 467.111 356.67 469.347 354.477 458.917 364.833 C 486.466 371.295 516.052 368.172 544.309 367.024 C 580.949 359.282 620.312 359.206 654.754 343.635 C 667.736 309.135 725.558 310.214 759.398 296.405 C 798.994 288.028 837.871 263.633 878.724 281.049 C 885.837 273.311 931.275 288.035 956.093 275.046 C 923.891 262.627 867.284 252.671 841.252 226.915 C 805.601 231.055 1218.735 74.318 786.575 202.465 C 757.574 184.515 726.579 209.541 700.171 200.488 C 705.752 185.628 741.886 193.528 733.855 193.674 C 752.02 197.766 792.969 188.635 751.657 185.042 C 732.619 182.623 679.595 191.983 713.293 174.961 C 676.202 175.367 644.225 146.712 606.88 145.695 C 623.204 98.708 548.949 120.133 524.417 122.771 C 480.032 123.049 558.86 139.49 524.333 146.112 C 490.85 155.38 504.507 131.46 482.146 119.499 L 445.295 121.912 Z M 731.075 193.372 L 730.196 193.422 L 731.075 193.372 Z M 730.191 193.42 C 724.723 190.063 722.035 197.384 730.191 193.42 Z M 726.387 192.808 C 723.036 192.174 724.279 192.409 726.387 192.808 Z M 419.121 338.817 C 423.991 337.202 411.923 338.641 419.121 338.817 Z M 531.597 129.234 C 519.422 130.237 511.1 129.186 531.597 129.234 Z M 577.852 133.915 C 565.833 141.447 561.204 129.851 577.852 133.915 Z M 461.902 141.982 C 463.194 143.2 459.9 142.199 461.902 141.982 Z M 487.815 147.227 C 485.196 150.443 474.534 146.199 487.815 147.227 Z M 385.817 150.097 C 372.39 153.981 373.733 149.144 385.817 150.097 Z M 570.087 150.708 C 585.702 148.71 627.915 167.033 610.868 167.606 C 617.272 145.363 540.181 158.47 570.087 150.708 Z M 473.24 150.943 C 470.526 155.922 461.578 145.829 473.24 150.943 Z M 529.024 165.361 C 550.564 167.032 514.034 169.436 529.024 165.361 Z M 525.287 179.943 C 577.207 187.102 497.173 184.183 525.287 179.943 Z M 706.084 185.47 C 721.508 185.421 734.249 186.482 710.832 185.659 L 706.084 185.47 Z M 519.097 186.857 C 528.868 186.96 521.235 186.878 519.097 186.857 Z M 666.179 190.879 C 679.794 194.473 642.07 192.601 666.179 190.879 Z M 741.573 205.062 C 754.291 203.645 806.071 222.616 768.406 216.513 C 758.919 215.208 747.766 214.06 741.573 205.062 Z M 116.625 252.946 C 116.379 256.251 110.278 248.876 116.625 252.946 Z M 113.949 254.286 C 118.257 253.047 125.349 260.078 113.949 254.286 Z M 867.824 265.434 C 878.488 270.27 924.401 270.055 891.868 270.11 C 905.905 267.964 926.154 276.503 900.339 274.114 C 890.077 270.551 873.856 278.062 867.824 265.434 Z M 209.757 273.809 C 209.739 275.459 206.978 271.832 209.757 273.809 Z M 213.78 281.311 C 210.533 282.084 212.113 281.708 213.78 281.311 Z M 173.738 282.58 C 187.833 284.899 244.478 281.2 201.99 286.66 C 192.512 287.87 182.196 288.014 173.738 282.58 Z M 246.883 283.074 C 251.755 281.089 249.543 291.072 246.883 283.074 Z M 788.655 286.603 L 788.057 286.861 L 788.655 286.603 Z M 412.912 317.036 C 427.138 314.831 471.46 329.701 432.162 327.952 C 421.803 334.294 386.945 334.475 412.912 317.036 Z" fill="url(#a)" filter="url(#b)" style="" transform="matrix(-1, 0, 0, -1, 1010.008100675779, 477.186602990234)"></path>
    <path d="M 323.283 151.64 C 308.139 155.812 292.955 159.223 277.729 161.788 C 302.083 168.208 323.744 179.615 349.67 177.14 C 369.317 177.396 386.945 167.988 397.956 181.081 C 415.159 187.742 432.853 201.451 454.793 194.273 C 474.786 186.844 491.435 190.052 511.735 194.159 C 527.437 200.42 544.871 209.117 563.651 204.378 C 586.691 201.305 600.236 218.364 619.471 227.781 C 634.348 234.144 659.576 234.804 668.803 242.148 C 668.28 266.493 702.153 263.946 719.054 259.315 C 731.234 255.985 749.364 248.468 745.168 233.157 C 767.873 238.296 780.287 214.492 801.413 212.586 C 815.759 199.159 834.929 198.084 852.734 190.989 C 871.685 176.617 830.334 176.188 820.305 176.565 C 801.781 179.957 784.178 173.885 765.591 175.413 C 755.72 175.846 744.229 179.307 758.991 171.751 C 755.808 153.632 719.344 160.832 702.874 160.323 C 681.148 158.22 659.009 177.67 639.475 166.585 C 612.597 154.339 578.97 139.308 550.971 157.446 C 544.6 150.151 519.804 141.617 521.995 136.328 C 505.784 134.056 472.255 122.655 457.597 144.332 C 440.082 155.926 478.428 175.604 456.472 172.963 C 441.527 166.427 424.25 162.126 407.142 164.525 C 390.746 163.771 409.486 167.316 409.627 157.479 C 386.116 159.7 363.081 158.28 341.13 152.402 C 335.343 151.603 329.369 151.242 323.284 151.638 L 323.283 151.64 Z M 406.927 163.4 C 413.882 165.3 419.679 160.319 406.927 163.4 Z M 690.754 172.498 C 686.044 175.038 674.024 173.968 690.754 172.498 Z M 598.506 181.062 C 620.802 183.756 593.544 183.583 598.506 181.062 Z M 760.708 182.024 C 754.298 184.997 741.568 189.897 755.41 183.701 L 757.864 182.891 L 760.708 182.024 Z M 605.405 186.393 C 612.424 185.378 627.81 188.225 611.259 188.287 L 607.372 188.17 L 605.405 186.393 Z M 749.034 189.455 C 750.503 189.124 749.294 189.869 749.034 189.455 Z M 714.276 198.812 C 710.356 208.78 687.453 199.846 706.276 199.699 L 709.919 199.27 L 714.276 198.812 Z" filter="url(#g)" opacity=".74444" style="fill: rgba(0, 0, 0, 0.55); transform-box: fill-box; transform-origin: 50% 50%;" transform="matrix(-1, 0, 0, -1, -0.000047, -0.000008)"></path>
    <path d="M 323.478 162.57 C 308.23 165.698 292.981 168.393 277.732 170.701 C 302.149 177.862 323.98 191.092 350.148 191.195 C 370.021 193.325 387.825 184.937 398.986 198.759 C 416.353 205.619 434.165 218.634 456.138 210.345 C 476.132 201.624 492.78 203.141 513.08 207.247 C 528.782 213.507 546.216 222.206 564.996 217.466 C 588.036 214.393 601.581 231.452 620.816 240.87 C 635.693 247.232 660.92 247.894 670.148 255.236 C 669.626 279.581 703.498 277.036 720.399 272.404 C 732.579 269.075 750.709 261.558 746.513 246.246 C 769.218 251.383 781.632 227.581 802.758 225.675 C 817.104 212.248 836.274 211.174 854.079 204.077 C 873.03 189.705 831.679 189.277 821.65 189.654 C 803.126 193.047 785.523 186.973 766.936 188.502 C 757.065 188.936 745.574 192.397 760.336 184.839 C 757.153 166.72 720.688 173.922 704.219 173.412 C 682.493 171.307 660.354 190.759 640.82 179.673 C 613.941 167.428 580.315 152.397 552.316 170.535 C 545.945 163.24 521.149 154.705 523.34 149.417 C 507.129 147.144 473.599 136.525 458.94 159.655 C 441.38 172.562 479.773 190.16 457.816 188.999 C 442.836 183.275 425.465 179.505 408.223 182.058 C 391.659 180.78 410.591 184.958 410.721 174.784 C 386.973 176.318 363.668 173.119 341.478 164.957 C 335.635 163.593 329.608 162.682 323.474 162.569 L 323.478 162.57 Z M 408.007 180.895 C 415.026 182.897 420.861 177.715 408.007 180.895 Z M 692.103 185.586 C 687.394 188.128 675.372 187.057 692.103 185.586 Z M 599.854 194.151 C 622.15 196.844 594.893 196.673 599.854 194.151 Z M 762.056 195.115 C 755.646 198.086 742.916 202.986 756.758 196.79 L 759.212 195.979 L 762.056 195.115 Z M 606.753 199.483 C 613.772 198.466 629.159 201.314 612.607 201.377 L 608.721 201.259 L 606.753 199.483 Z M 750.382 202.544 C 751.852 202.213 750.643 202.956 750.382 202.544 Z M 715.624 211.901 C 711.704 221.867 688.802 212.933 707.625 212.787 L 711.267 212.358 L 715.624 211.901 Z" filter="url(#f)" opacity=".74444" style="fill: rgba(255, 255, 255, 0.87); transform-box: fill-box; transform-origin: 50% 50%;" transform="matrix(-1, 0, 0, -1, 0.000073, 0.000014)"></path>
    <g transform="matrix(-0.707532, 0, 0, -0.730542, 654.513367, 454.824921)" filter="url(#c)" opacity=".75" style="">
      <path d="M -40.535 245.87 C -7.886 258.917 91.515 264.971 -38.746 253.446 C -8.02 243.475 81.234 197.3 82.244 245.292 C 64.355 256.274 94.67 256.183 93.079 256.046 C 5.695 248.528 24.28 256.073 56.814 244.467 C 102.757 229.325 159.224 212.808 164.794 270.5 C 170.134 269.861 186.167 269.102 180.814 268.582 C 160.301 266.588 139.524 268.291 119.036 266.053 C 107.632 264.808 141.828 262.684 153.299 262.809 C 242.545 263.786 216.805 260.493 259.769 266.965 C 265.859 266.744 284.126 266.563 278.038 266.303 C 256.367 265.379 234.648 265.942 212.979 264.969 C 207.656 264.73 223.612 264.092 228.94 264.1 C 259.671 264.146 290.431 266.573 321.129 265.131 C 347.757 263.879 266.97 266.514 241.393 259.004 C 208.001 247.94 67.433 229.465 244.71 241.266 C 265.772 242.668 305.327 272.047 324.5 283.577 C 377.404 323.099 151.81 298.227 252.956 270.082 C 294.179 270.701 455.041 320.799 496.248 322.165 C 557.829 324.206 342.515 303.941 287.173 285.886 C 279.562 280.655 178.433 263.605 180.353 253.967 C 181.627 247.567 191.21 246.723 196.638 243.101 C 250.705 243.645 466.241 244.145 516.741 270.771 C 512.78 285.978 407.613 311.293 400.291 324.446 L 289.928 287.182 C 298.001 283.007 297.331 285.282 287.979 280.34 C 257.59 272.409 135.999 247.361 263.157 252.966 C 264.668 232.605 348.498 264.158 364.887 276.126 C 397.19 287.216 361.181 273.494 317.944 280.912 C 314.557 281.493 326.497 334.836 328.845 337.346 L 302.737 289.227 C 293.686 288.975 266.669 288.122 275.662 287.068 C 298.456 284.395 321.526 285.246 344.457 284.335 C 334.148 283.469 323.726 283.485 313.529 281.738 C 312.125 281.497 309.549 277.691 310.688 278.546 C 357.003 313.328 221.794 313.061 209.098 294.97 C 80.568 200.227 264.329 190.48 317.528 253.34 C 330.665 299.813 318.702 238.37 243.471 276.898 C 224.536 286.595 286.013 276.023 307.287 276.029 C 311.706 276.03 298.476 276.79 294.058 276.912 C 197.749 279.567 228.384 281.255 182.648 278.085 C 147.481 273.561 163.045 276.243 233.66 275.21 C 244.068 275.058 212.993 277.958 202.591 278.339 C 106.908 281.844 134.525 293.381 96.781 275.348 C 60.574 229.199 206.211 240.631 133.381 253.94 C 97.775 266.78 6.751 302.541 15.221 256.415 C 108.206 252.315 84.911 247.896 35.543 270.621 C -14.493 273.194 -62.631 282.162 -106.227 254.786 L -40.543 245.869 L -40.535 245.87 Z" filter="url(#d)" opacity=".41111" style="fill: rgba(0, 0, 0, 0.86);"></path>
      <path d="M -55.897 292.083 C -22.966 305.962 76.233 311.412 -52.446 304.089 C -21.187 295.264 69.294 251.047 71.224 299.682 C 53.699 310.645 84.205 310.492 82.642 310.309 C -3.562 300.22 -8.511 280.668 24.429 267.608 C 70.845 250.258 151.272 258.384 156.842 316.076 C 162.182 315.436 178.215 314.677 172.862 314.157 C 152.349 312.164 131.563 313.903 111.084 311.629 C 99.682 310.363 133.876 308.259 145.347 308.385 C 234.593 309.362 208.853 306.068 251.817 312.54 C 257.907 312.32 276.174 312.139 270.086 311.879 C 248.415 310.955 226.696 311.517 205.027 310.545 C 199.704 310.306 215.66 309.668 220.988 309.676 C 251.719 309.722 282.479 312.148 313.177 310.706 C 339.805 309.455 259.018 312.09 233.441 304.58 C 200.049 293.516 59.481 275.041 236.758 286.842 C 257.82 288.244 297.375 317.623 316.548 329.153 C 369.452 368.675 143.858 343.803 245.004 315.658 C 286.227 316.277 327.467 316.15 368.674 317.515 C 430.255 319.557 334.563 349.516 279.221 331.461 C 271.61 326.231 170.481 309.18 172.401 299.542 C 173.675 293.142 183.258 292.298 188.686 288.676 C 242.753 289.22 307.796 289.72 358.296 316.346 C 354.335 331.553 357.214 324.487 349.892 337.639 L 281.976 332.757 C 290.049 328.582 289.379 330.857 280.027 325.915 C 249.638 317.985 128.047 292.936 255.205 298.541 C 256.716 278.18 340.546 309.733 356.935 321.701 C 389.238 332.791 353.229 319.069 309.992 326.488 C 306.605 327.069 314.687 331.507 317.034 334.017 L 294.785 334.802 C 285.735 334.55 258.717 333.697 267.71 332.643 C 290.504 329.97 313.574 330.821 336.505 329.91 C 326.196 329.044 315.774 329.061 305.577 327.313 C 304.173 327.072 301.597 323.266 302.736 324.122 C 349.051 358.904 199.371 422.079 186.675 403.988 C 58.145 309.245 256.377 236.056 309.576 298.916 C 322.713 345.389 310.75 283.946 235.519 322.474 C 216.584 332.171 278.061 321.598 299.335 321.604 C 303.754 321.605 290.524 322.366 286.106 322.488 C 189.797 325.143 220.432 326.831 174.696 323.661 C 139.529 319.137 155.093 321.819 225.708 320.786 C 236.116 320.633 205.041 323.534 194.639 323.915 C 98.956 327.42 126.573 338.957 88.829 320.923 C 52.409 274.774 198.259 286.206 125.429 299.515 C 89.823 312.355 -4.681 348.116 2.699 301.99 C 93.908 297.89 71.527 293.471 21.208 316.196 C -29.515 318.769 -78.21 327.737 -121.802 300.361 L -55.908 292.082 L -55.897 292.083 Z" filter="url(#e)" style="fill: rgba(0, 0, 0, 0.86);"></path>
    </g>
  </g>
</svg>